<svg width="392" height="424" viewBox="0 0 392 424" fill="none" xmlns="http://www.w3.org/2000/svg">
<path d="M309.481 261.191H66.3111C64.3625 261.191 62.7831 259.611 62.7831 257.663C62.7831 255.714 64.3625 254.135 66.3111 254.135H309.481C311.43 254.135 313.009 255.714 313.009 257.663C313.009 259.611 311.429 261.191 309.481 261.191Z" fill="#C9C9C9"/>
<path d="M112.069 224.729C108.321 224.729 105.271 221.68 105.271 217.931C105.271 214.182 108.321 211.133 112.069 211.133H150.499V224.729H112.069Z" fill="#CECECE"/>
<path d="M152.724 227.081H112.069C107.016 227.081 102.919 222.984 102.919 217.931C102.919 212.878 107.016 208.781 112.069 208.781H152.724V227.081Z" fill="white"/>
<path d="M109.583 215.822H150.499" stroke="#1F3969" stroke-width="4" stroke-miterlimit="10" stroke-linecap="round" stroke-linejoin="round"/>
<path d="M109.583 219.974H150.499" stroke="#1F3969" stroke-width="4" stroke-miterlimit="10" stroke-linecap="round" stroke-linejoin="round"/>
<path d="M112.069 224.729C108.321 224.729 105.271 221.68 105.271 217.931C105.271 214.182 108.321 211.133 112.069 211.133H150.499V224.729H112.069Z" stroke="#1F3969" stroke-width="4" stroke-miterlimit="10" stroke-linecap="round" stroke-linejoin="round"/>
<path d="M112.069 224.729C108.321 224.729 105.271 221.68 105.271 217.931C105.271 214.182 108.321 211.133 112.069 211.133H151.156L152.724 208.781H112.069C107.016 208.781 102.919 212.878 102.919 217.931C102.919 222.984 107.016 227.081 112.069 227.081H152.724L151.156 224.729H112.069V224.729Z" fill="#FF3E3E"/>
<path d="M112.069 224.729C108.321 224.729 105.271 221.68 105.271 217.931C105.271 214.182 108.321 211.133 112.069 211.133H151.156L152.724 208.781H112.069C107.016 208.781 102.919 212.878 102.919 217.931C102.919 222.984 107.016 227.081 112.069 227.081H152.724L151.156 224.729H112.069V224.729Z" stroke="#1F3969" stroke-width="4" stroke-miterlimit="10" stroke-linecap="round" stroke-linejoin="round"/>
<path opacity="0.28" d="M143.984 208.781H136.774V227.081H143.984V208.781Z" fill="#1F3969" stroke="#1F3969" stroke-width="4" stroke-miterlimit="10" stroke-linecap="round" stroke-linejoin="round"/>
<path d="M148.543 242.196H74.1005C72.6368 242.196 71.4502 241.009 71.4502 239.545V229.732C71.4502 228.268 72.6368 227.081 74.1005 227.081H148.543C150.006 227.081 151.193 228.268 151.193 229.732V239.545C151.193 241.009 150.006 242.196 148.543 242.196Z" fill="#50B56F"/>
<path d="M148.543 242.196H74.1005C72.6368 242.196 71.4502 241.009 71.4502 239.545V229.732C71.4502 228.268 72.6368 227.081 74.1005 227.081H148.543C150.006 227.081 151.193 228.268 151.193 229.732V239.545C151.193 241.009 150.006 242.196 148.543 242.196Z" stroke="#1F3969" stroke-width="4" stroke-miterlimit="10" stroke-linecap="round" stroke-linejoin="round"/>
<path opacity="0.28" d="M148.543 227.081H136.774V232.96C136.774 236.654 139.769 239.648 143.462 239.648H151.188C151.189 239.613 151.193 239.58 151.193 239.545V229.732C151.193 228.268 150.006 227.081 148.543 227.081Z" fill="#1F3969" stroke="#1F3969" stroke-width="4" stroke-miterlimit="10" stroke-linecap="round" stroke-linejoin="round"/>
<path d="M169.497 245.23H83.2773C83.7798 246.504 84.0734 248.035 84.0734 249.682C84.0734 251.33 83.7798 252.861 83.2773 254.135H169.497C168.994 252.861 168.701 251.33 168.701 249.682C168.701 248.035 168.994 246.504 169.497 245.23Z" fill="#CECECE"/>
<path d="M171.835 242.861H80.9421V245.23H171.835V242.861Z" fill="#5F5AFF"/>
<path d="M171.835 242.861H80.9421V245.23H171.835V242.861Z" stroke="#1F3969" stroke-width="4" stroke-miterlimit="10" stroke-linecap="round" stroke-linejoin="round"/>
<path d="M171.835 254.135H80.9421V256.504H171.835V254.135Z" fill="#F6F9FD"/>
<path d="M171.835 254.135H80.9421V256.504H171.835V254.135Z" fill="#5F5AFF"/>
<path d="M171.835 254.135H80.9421V256.504H171.835V254.135Z" stroke="#1F3969" stroke-width="4" stroke-miterlimit="10" stroke-linecap="round" stroke-linejoin="round"/>
<path d="M217.023 248.135L215.842 234.944H196.474L195.293 248.135C195.018 251.199 193.174 254.135 190.284 256.475L190.281 256.504H222.035L222.032 256.475C219.142 254.135 217.298 251.199 217.023 248.135Z" fill="#BFCFE2"/>
<path opacity="0.28" d="M196.474 234.944L195.765 242.861H216.551L215.842 234.944H196.474Z" fill="#1F3969" stroke="#1F3969" stroke-width="4" stroke-miterlimit="10" stroke-linecap="round" stroke-linejoin="round"/>
<path d="M217.023 248.135L215.842 234.944H196.474L195.293 248.135C195.018 251.199 193.174 254.135 190.284 256.475L190.281 256.504H222.035L222.032 256.475C219.142 254.135 217.298 251.199 217.023 248.135Z" stroke="#1F3969" stroke-width="4" stroke-miterlimit="10" stroke-linecap="round" stroke-linejoin="round"/>
<path d="M268.094 236.904H144.222C141.624 236.904 139.518 234.797 139.518 232.2V151.448C139.518 148.85 141.624 146.744 144.222 146.744H268.094C270.692 146.744 272.798 148.85 272.798 151.448V232.2C272.798 234.798 270.692 236.904 268.094 236.904Z" fill="white"/>
<path d="M268.094 236.904H144.222C141.624 236.904 139.518 234.797 139.518 232.2V151.448C139.518 148.85 141.624 146.744 144.222 146.744H268.094C270.692 146.744 272.798 148.85 272.798 151.448V232.2C272.798 234.798 270.692 236.904 268.094 236.904Z" fill="#BFCFE2"/>
<path d="M268.094 236.904H144.222C141.624 236.904 139.518 234.797 139.518 232.2V151.448C139.518 148.85 141.624 146.744 144.222 146.744H268.094C270.692 146.744 272.798 148.85 272.798 151.448V232.2C272.798 234.798 270.692 236.904 268.094 236.904Z" stroke="#1F3969" stroke-width="4" stroke-miterlimit="10" stroke-linecap="round" stroke-linejoin="round"/>
<path d="M266.134 221.847V153.408H146.182V221.847H266.134Z" fill="#F6F9FD"/>
<path opacity="0.28" d="M150.5 146.744V201.072C150.5 202.804 151.904 204.208 153.636 204.208H227.752C229.484 204.208 230.888 202.804 230.888 201.072V146.744H150.5Z" fill="#1F3969" stroke="#1F3969" stroke-width="4" stroke-miterlimit="10" stroke-linecap="round" stroke-linejoin="round"/>
<path d="M266.134 221.847V153.408H146.182V221.847H266.134Z" stroke="#1F3969" stroke-width="4" stroke-miterlimit="10" stroke-linecap="round" stroke-linejoin="round"/>
<path d="M200.887 229.339H211.429" stroke="#1F3969" stroke-width="4" stroke-miterlimit="10" stroke-linecap="round" stroke-linejoin="round"/>
<path d="M231.28 199.896H157.164C155.432 199.896 154.028 198.492 154.028 196.76V138.632C154.028 136.9 155.432 135.496 157.164 135.496H231.28C233.012 135.496 234.416 136.9 234.416 138.632V196.76C234.416 198.492 233.012 199.896 231.28 199.896Z" fill="#2D425E"/>
<path d="M234.416 143.122H154.028V138.632C154.028 136.9 155.432 135.496 157.164 135.496H231.28C233.012 135.496 234.416 136.9 234.416 138.632V143.122H234.416Z" stroke="#1F3969" stroke-width="4" stroke-miterlimit="10" stroke-linecap="round" stroke-linejoin="round"/>
<path d="M234.416 144.616H154.028V138.632C154.028 136.9 155.432 135.496 157.164 135.496H231.28C233.012 135.496 234.416 136.9 234.416 138.632V144.616H234.416Z" fill="#D0DDF0"/>
<path d="M234.416 144.616H154.028V138.632C154.028 136.9 155.432 135.496 157.164 135.496H231.28C233.012 135.496 234.416 136.9 234.416 138.632V144.616H234.416Z" stroke="#1F3969" stroke-width="4" stroke-miterlimit="10" stroke-linecap="round" stroke-linejoin="round"/>
<path d="M234.416 144.616H154.028V138.632C154.028 136.9 155.432 135.496 157.164 135.496H231.28C233.012 135.496 234.416 136.9 234.416 138.632V144.616H234.416Z" stroke="#1F3969" stroke-width="4" stroke-miterlimit="10" stroke-linecap="round" stroke-linejoin="round"/>
<path d="M231.28 199.896H157.164C155.432 199.896 154.028 198.492 154.028 196.76V138.632C154.028 136.9 155.432 135.496 157.164 135.496H231.28C233.012 135.496 234.416 136.9 234.416 138.632V196.76C234.416 198.492 233.012 199.896 231.28 199.896Z" stroke="#1F3969" stroke-width="4" stroke-miterlimit="10" stroke-linecap="round" stroke-linejoin="round"/>
<path opacity="0.28" d="M269.966 213.775H224.488C222.756 213.775 221.352 212.371 221.352 210.639V162.445C221.352 160.713 222.756 159.309 224.488 159.309H269.966C271.698 159.309 273.102 160.713 273.102 162.445V210.639C273.102 212.371 271.698 213.775 269.966 213.775Z" fill="#1F3969" stroke="#1F3969" stroke-width="4" stroke-miterlimit="10" stroke-linecap="round" stroke-linejoin="round"/>
<path d="M273.102 211.031H227.624C225.892 211.031 224.488 209.627 224.488 207.895V159.701C224.488 157.969 225.892 156.565 227.624 156.565H273.102C274.834 156.565 276.238 157.969 276.238 159.701V207.895C276.238 209.627 274.834 211.031 273.102 211.031Z" fill="#2AA1FF"/>
<path d="M273.102 211.031H227.624C225.892 211.031 224.488 209.627 224.488 207.895V159.701C224.488 157.969 225.892 156.565 227.624 156.565H273.102C274.834 156.565 276.238 157.969 276.238 159.701V207.895C276.238 209.627 274.834 211.031 273.102 211.031Z" stroke="#1F3969" stroke-width="4" stroke-miterlimit="10" stroke-linecap="round" stroke-linejoin="round"/>
<path opacity="0.34" d="M266.335 171.489H234.36C233.241 171.489 232.334 170.583 232.334 169.464V166.406C232.334 165.288 233.241 164.381 234.36 164.381H266.335C267.454 164.381 268.36 165.288 268.36 166.406V169.464C268.36 170.583 267.453 171.489 266.335 171.489Z" stroke="white" stroke-width="2" stroke-miterlimit="10" stroke-linecap="round" stroke-linejoin="round"/>
<g opacity="0.34">
<path opacity="0.34" d="M252.283 182.978H234.391C233.273 182.978 232.366 182.071 232.366 180.952V177.895C232.366 176.776 233.273 175.869 234.391 175.869H252.283C253.402 175.869 254.309 176.776 254.309 177.895V180.952C254.309 182.071 253.402 182.978 252.283 182.978ZM266.366 182.978H259.446C258.327 182.978 257.42 182.071 257.42 180.952V177.895C257.42 176.776 258.327 175.869 259.446 175.869H266.366C267.485 175.869 268.392 176.776 268.392 177.895V180.952C268.392 182.071 267.485 182.978 266.366 182.978Z" stroke="white" stroke-width="2" stroke-miterlimit="10" stroke-linecap="round" stroke-linejoin="round"/>
</g>
<path d="M232.334 194.914H268.36" stroke="white" stroke-width="2" stroke-miterlimit="10" stroke-linecap="round" stroke-linejoin="round"/>
<path d="M232.334 199.144H268.36" stroke="white" stroke-width="2" stroke-miterlimit="10" stroke-linecap="round" stroke-linejoin="round"/>
<path d="M232.334 203.374H254.277" stroke="white" stroke-width="2" stroke-miterlimit="10" stroke-linecap="round" stroke-linejoin="round"/>
<path d="M161.896 141.624C162.762 141.624 163.464 140.922 163.464 140.056C163.464 139.19 162.762 138.488 161.896 138.488C161.03 138.488 160.328 139.19 160.328 140.056C160.328 140.922 161.03 141.624 161.896 141.624Z" fill="#1F3969"/>
<path d="M167.339 141.624C168.205 141.624 168.907 140.922 168.907 140.056C168.907 139.19 168.205 138.488 167.339 138.488C166.473 138.488 165.771 139.19 165.771 140.056C165.771 140.922 166.473 141.624 167.339 141.624Z" fill="#1F3969"/>
<path d="M172.783 141.624C173.649 141.624 174.351 140.922 174.351 140.056C174.351 139.19 173.649 138.488 172.783 138.488C171.917 138.488 171.215 139.19 171.215 140.056C171.215 140.922 171.917 141.624 172.783 141.624Z" fill="#1F3969"/>
<path d="M200.21 151.853H205.278" stroke="white" stroke-width="4" stroke-miterlimit="10" stroke-linecap="round" stroke-linejoin="round"/>
<path d="M174.351 151.853H196.45" stroke="#7BFFA0" stroke-width="4" stroke-miterlimit="10" stroke-linecap="round" stroke-linejoin="round"/>
<path d="M163.464 151.853H171.215" stroke="#9169FF" stroke-width="4" stroke-miterlimit="10" stroke-linecap="round" stroke-linejoin="round"/>
<path d="M173.567 190.488H190.445" stroke="#9169FF" stroke-width="4" stroke-miterlimit="10" stroke-linecap="round" stroke-linejoin="round"/>
<path d="M163.464 190.488H168.907" stroke="#7BFFA0" stroke-width="4" stroke-miterlimit="10" stroke-linecap="round" stroke-linejoin="round"/>
<path d="M196.45 156.682H199.592" stroke="white" stroke-width="4" stroke-miterlimit="10" stroke-linecap="round" stroke-linejoin="round"/>
<path d="M181.997 156.682H192.67" stroke="#9169FF" stroke-width="4" stroke-miterlimit="10" stroke-linecap="round" stroke-linejoin="round"/>
<path d="M167.339 156.682H178.215" stroke="#FFC47D" stroke-width="4" stroke-miterlimit="10" stroke-linecap="round" stroke-linejoin="round"/>
<path d="M184.173 161.511H193.518" stroke="white" stroke-width="4" stroke-miterlimit="10" stroke-linecap="round" stroke-linejoin="round"/>
<path d="M172.389 161.511H181.202" stroke="#FF5757" stroke-width="4" stroke-miterlimit="10" stroke-linecap="round" stroke-linejoin="round"/>
<path d="M185.42 166.341H187.355" stroke="white" stroke-width="4" stroke-miterlimit="10" stroke-linecap="round" stroke-linejoin="round"/>
<path d="M177.65 166.341H181.997" stroke="#9169FF" stroke-width="4" stroke-miterlimit="10" stroke-linecap="round" stroke-linejoin="round"/>
<path d="M167.339 166.341H174.351" stroke="#7BFFA0" stroke-width="4" stroke-miterlimit="10" stroke-linecap="round" stroke-linejoin="round"/>
<path d="M182.393 171.17H194.895" stroke="#FFC47D" stroke-width="4" stroke-miterlimit="10" stroke-linecap="round" stroke-linejoin="round"/>
<path d="M167.339 171.17H178.561" stroke="#FF5757" stroke-width="4" stroke-miterlimit="10" stroke-linecap="round" stroke-linejoin="round"/>
<path d="M196.855 176H203.654" stroke="#9169FF" stroke-width="4" stroke-miterlimit="10" stroke-linecap="round" stroke-linejoin="round"/>
<path d="M182.393 176H193.27" stroke="#FF5757" stroke-width="4" stroke-miterlimit="10" stroke-linecap="round" stroke-linejoin="round"/>
<path d="M172.389 176H178.561" stroke="#7BFFA0" stroke-width="4" stroke-miterlimit="10" stroke-linecap="round" stroke-linejoin="round"/>
<path d="M187.334 180.829H193.27" stroke="white" stroke-width="4" stroke-miterlimit="10" stroke-linecap="round" stroke-linejoin="round"/>
<path d="M172.389 180.829H183.265" stroke="#9169FF" stroke-width="4" stroke-miterlimit="10" stroke-linecap="round" stroke-linejoin="round"/>
<path d="M202.744 185.658H209.523" stroke="white" stroke-width="4" stroke-miterlimit="10" stroke-linecap="round" stroke-linejoin="round"/>
<path d="M181.997 185.658H199.076" stroke="#FFC47D" stroke-width="4" stroke-miterlimit="10" stroke-linecap="round" stroke-linejoin="round"/>
<path d="M167.339 185.658H178.215" stroke="white" stroke-width="4" stroke-miterlimit="10" stroke-linecap="round" stroke-linejoin="round"/>
<path d="M84.2388 247.949H168.701" stroke="#1F3969" stroke-width="4" stroke-miterlimit="10" stroke-linecap="round" stroke-linejoin="round"/>
<path d="M84.2388 251.091H168.701" stroke="#1F3969" stroke-width="4" stroke-miterlimit="10" stroke-linecap="round" stroke-linejoin="round"/>
<path d="M169.497 245.23H83.2773C83.7798 246.504 84.0734 248.035 84.0734 249.682C84.0734 251.33 83.7798 252.861 83.2773 254.135H169.497C168.994 252.861 168.701 251.33 168.701 249.682C168.701 248.035 168.994 246.504 169.497 245.23Z" stroke="#1F3969" stroke-width="4" stroke-miterlimit="10" stroke-linecap="round" stroke-linejoin="round"/>
<path d="M285.507 213.295L281.686 213.742L285.002 242.028L288.823 241.58L285.507 213.295Z" fill="#FFA364"/>
<path d="M285.505 213.294L281.684 213.742L282.021 216.619L285.842 216.172L285.505 213.294Z" fill="#2AA1FF"/>
<path d="M285.505 213.294L281.684 213.742L282.021 216.619L285.842 216.172L285.505 213.294Z" stroke="#1F3969" stroke-width="4" stroke-miterlimit="10" stroke-linecap="round" stroke-linejoin="round"/>
<path d="M285.507 213.295L281.686 213.742L285.002 242.028L288.823 241.58L285.507 213.295Z" stroke="#1F3969" stroke-width="4" stroke-miterlimit="10" stroke-linecap="round" stroke-linejoin="round"/>
<path d="M296.009 219.063L292.185 218.647L289.106 246.959L292.93 247.375L296.009 219.063Z" fill="#FF5252"/>
<path d="M296.009 219.063L292.185 218.647L289.106 246.959L292.93 247.375L296.009 219.063Z" stroke="#1F3969" stroke-width="4" stroke-miterlimit="10" stroke-linecap="round" stroke-linejoin="round"/>
<path d="M296.009 219.063L292.184 218.647L291.871 221.527L295.696 221.943L296.009 219.063Z" fill="#2D425E"/>
<path d="M296.009 219.063L292.184 218.647L291.871 221.527L295.696 221.943L296.009 219.063Z" stroke="#1F3969" stroke-width="4" stroke-miterlimit="10" stroke-linecap="round" stroke-linejoin="round"/>
<path d="M298.339 256.593H282.949L280.446 233.001H300.842L298.339 256.593Z" fill="#27AE60"/>
<path d="M280.446 233.001L280.492 233.434H296.031L293.575 256.593H298.339L300.842 233.001H280.446Z" fill="#6567C3"/>
<path d="M298.339 256.593H282.949L280.446 233.001H300.842L298.339 256.593Z" stroke="#1F3969" stroke-width="4" stroke-miterlimit="10" stroke-linecap="round" stroke-linejoin="round"/>
<path d="M118.616 350.908V353.572H107.708V362.032H116.564V364.696H107.708V376H104.432V350.908H118.616ZM140.069 356.272V376H136.793V373.084C136.169 374.092 135.293 374.884 134.165 375.46C133.061 376.012 131.837 376.288 130.493 376.288C128.957 376.288 127.577 375.976 126.353 375.352C125.129 374.704 124.157 373.744 123.437 372.472C122.741 371.2 122.393 369.652 122.393 367.828V356.272H125.633V367.396C125.633 369.34 126.125 370.84 127.109 371.896C128.093 372.928 129.437 373.444 131.141 373.444C132.893 373.444 134.273 372.904 135.281 371.824C136.289 370.744 136.793 369.172 136.793 367.108V356.272H140.069ZM148.876 349.36V376H145.6V349.36H148.876ZM157.736 349.36V376H154.46V349.36H157.736ZM176.999 361.42V364.192H162.635V361.42H176.999ZM191.103 376.252C189.447 376.252 187.959 375.964 186.639 375.388C185.343 374.788 184.323 373.972 183.579 372.94C182.835 371.884 182.451 370.672 182.427 369.304H185.919C186.039 370.48 186.519 371.476 187.359 372.292C188.223 373.084 189.471 373.48 191.103 373.48C192.663 373.48 193.887 373.096 194.775 372.328C195.687 371.536 196.143 370.528 196.143 369.304C196.143 368.344 195.879 367.564 195.351 366.964C194.823 366.364 194.163 365.908 193.371 365.596C192.579 365.284 191.511 364.948 190.167 364.588C188.511 364.156 187.179 363.724 186.171 363.292C185.187 362.86 184.335 362.188 183.615 361.276C182.919 360.34 182.571 359.092 182.571 357.532C182.571 356.164 182.919 354.952 183.615 353.896C184.311 352.84 185.283 352.024 186.531 351.448C187.803 350.872 189.255 350.584 190.887 350.584C193.239 350.584 195.159 351.172 196.647 352.348C198.159 353.524 199.011 355.084 199.203 357.028H195.603C195.483 356.068 194.979 355.228 194.091 354.508C193.203 353.764 192.027 353.392 190.563 353.392C189.195 353.392 188.079 353.752 187.215 354.472C186.351 355.168 185.919 356.152 185.919 357.424C185.919 358.336 186.171 359.08 186.675 359.656C187.203 360.232 187.839 360.676 188.583 360.988C189.351 361.276 190.419 361.612 191.787 361.996C193.443 362.452 194.775 362.908 195.783 363.364C196.791 363.796 197.655 364.48 198.375 365.416C199.095 366.328 199.455 367.576 199.455 369.16C199.455 370.384 199.131 371.536 198.483 372.616C197.835 373.696 196.875 374.572 195.603 375.244C194.331 375.916 192.831 376.252 191.103 376.252ZM208.272 358.972V370.6C208.272 371.56 208.476 372.244 208.884 372.652C209.292 373.036 210 373.228 211.008 373.228H213.42V376H210.468C208.644 376 207.276 375.58 206.364 374.74C205.452 373.9 204.996 372.52 204.996 370.6V358.972H202.44V356.272H204.996V351.304H208.272V356.272H213.42V358.972H208.272ZM216.165 366.064C216.165 364.048 216.573 362.284 217.389 360.772C218.205 359.236 219.321 358.048 220.737 357.208C222.177 356.368 223.773 355.948 225.525 355.948C227.253 355.948 228.753 356.32 230.025 357.064C231.297 357.808 232.245 358.744 232.869 359.872V356.272H236.181V376H232.869V372.328C232.221 373.48 231.249 374.44 229.953 375.208C228.681 375.952 227.193 376.324 225.489 376.324C223.737 376.324 222.153 375.892 220.737 375.028C219.321 374.164 218.205 372.952 217.389 371.392C216.573 369.832 216.165 368.056 216.165 366.064ZM232.869 366.1C232.869 364.612 232.569 363.316 231.969 362.212C231.369 361.108 230.553 360.268 229.521 359.692C228.513 359.092 227.397 358.792 226.173 358.792C224.949 358.792 223.833 359.08 222.825 359.656C221.817 360.232 221.013 361.072 220.413 362.176C219.813 363.28 219.513 364.576 219.513 366.064C219.513 367.576 219.813 368.896 220.413 370.024C221.013 371.128 221.817 371.98 222.825 372.58C223.833 373.156 224.949 373.444 226.173 373.444C227.397 373.444 228.513 373.156 229.521 372.58C230.553 371.98 231.369 371.128 231.969 370.024C232.569 368.896 232.869 367.588 232.869 366.1ZM240.493 366.1C240.493 364.06 240.901 362.284 241.717 360.772C242.533 359.236 243.661 358.048 245.101 357.208C246.565 356.368 248.233 355.948 250.105 355.948C252.529 355.948 254.521 356.536 256.081 357.712C257.665 358.888 258.709 360.52 259.213 362.608H255.685C255.349 361.408 254.689 360.46 253.705 359.764C252.745 359.068 251.545 358.72 250.105 358.72C248.233 358.72 246.721 359.368 245.569 360.664C244.417 361.936 243.841 363.748 243.841 366.1C243.841 368.476 244.417 370.312 245.569 371.608C246.721 372.904 248.233 373.552 250.105 373.552C251.545 373.552 252.745 373.216 253.705 372.544C254.665 371.872 255.325 370.912 255.685 369.664H259.213C258.685 371.68 257.629 373.3 256.045 374.524C254.461 375.724 252.481 376.324 250.105 376.324C248.233 376.324 246.565 375.904 245.101 375.064C243.661 374.224 242.533 373.036 241.717 371.5C240.901 369.964 240.493 368.164 240.493 366.1ZM274.601 376L266.861 367.288V376H263.585V349.36H266.861V365.02L274.457 356.272H279.029L269.741 366.1L279.065 376H274.601ZM80.0586 388.908C82.7946 388.908 85.1586 389.424 87.1506 390.456C89.1666 391.464 90.7026 392.916 91.7586 394.812C92.8386 396.708 93.3786 398.94 93.3786 401.508C93.3786 404.076 92.8386 406.308 91.7586 408.204C90.7026 410.076 89.1666 411.516 87.1506 412.524C85.1586 413.508 82.7946 414 80.0586 414H72.2466V388.908H80.0586ZM80.0586 411.3C83.2986 411.3 85.7706 410.448 87.4746 408.744C89.1786 407.016 90.0306 404.604 90.0306 401.508C90.0306 398.388 89.1666 395.952 87.4386 394.2C85.7346 392.448 83.2746 391.572 80.0586 391.572H75.5226V411.3H80.0586ZM115.7 403.38C115.7 404.004 115.664 404.664 115.592 405.36H99.8237C99.9437 407.304 100.604 408.828 101.804 409.932C103.028 411.012 104.504 411.552 106.232 411.552C107.648 411.552 108.824 411.228 109.76 410.58C110.72 409.908 111.392 409.02 111.776 407.916H115.304C114.776 409.812 113.72 411.36 112.136 412.56C110.552 413.736 108.584 414.324 106.232 414.324C104.36 414.324 102.68 413.904 101.192 413.064C99.7277 412.224 98.5757 411.036 97.7357 409.5C96.8957 407.94 96.4757 406.14 96.4757 404.1C96.4757 402.06 96.8837 400.272 97.6997 398.736C98.5157 397.2 99.6557 396.024 101.12 395.208C102.608 394.368 104.312 393.948 106.232 393.948C108.104 393.948 109.76 394.356 111.2 395.172C112.64 395.988 113.744 397.116 114.512 398.556C115.304 399.972 115.7 401.58 115.7 403.38ZM112.316 402.696C112.316 401.448 112.04 400.38 111.488 399.492C110.936 398.58 110.18 397.896 109.22 397.44C108.284 396.96 107.24 396.72 106.088 396.72C104.432 396.72 103.016 397.248 101.84 398.304C100.688 399.36 100.028 400.824 99.8597 402.696H112.316ZM127.368 410.976L133.488 394.272H136.98L129.24 414H125.424L117.684 394.272H121.212L127.368 410.976ZM158.204 403.38C158.204 404.004 158.168 404.664 158.096 405.36H142.328C142.448 407.304 143.108 408.828 144.308 409.932C145.532 411.012 147.008 411.552 148.736 411.552C150.152 411.552 151.328 411.228 152.264 410.58C153.224 409.908 153.896 409.02 154.28 407.916H157.808C157.28 409.812 156.224 411.36 154.64 412.56C153.056 413.736 151.088 414.324 148.736 414.324C146.864 414.324 145.184 413.904 143.696 413.064C142.232 412.224 141.08 411.036 140.24 409.5C139.4 407.94 138.98 406.14 138.98 404.1C138.98 402.06 139.388 400.272 140.204 398.736C141.02 397.2 142.16 396.024 143.624 395.208C145.112 394.368 146.816 393.948 148.736 393.948C150.608 393.948 152.264 394.356 153.704 395.172C155.144 395.988 156.248 397.116 157.016 398.556C157.808 399.972 158.204 401.58 158.204 403.38ZM154.82 402.696C154.82 401.448 154.544 400.38 153.992 399.492C153.44 398.58 152.684 397.896 151.724 397.44C150.788 396.96 149.744 396.72 148.592 396.72C146.936 396.72 145.52 397.248 144.344 398.304C143.192 399.36 142.532 400.824 142.364 402.696H154.82ZM165.804 387.36V414H162.528V387.36H165.804ZM179.991 414.324C178.143 414.324 176.463 413.904 174.951 413.064C173.463 412.224 172.287 411.036 171.423 409.5C170.583 407.94 170.163 406.14 170.163 404.1C170.163 402.084 170.595 400.308 171.459 398.772C172.347 397.212 173.547 396.024 175.059 395.208C176.571 394.368 178.263 393.948 180.135 393.948C182.007 393.948 183.699 394.368 185.211 395.208C186.723 396.024 187.911 397.2 188.775 398.736C189.663 400.272 190.107 402.06 190.107 404.1C190.107 406.14 189.651 407.94 188.739 409.5C187.851 411.036 186.639 412.224 185.103 413.064C183.567 413.904 181.863 414.324 179.991 414.324ZM179.991 411.444C181.167 411.444 182.271 411.168 183.303 410.616C184.335 410.064 185.163 409.236 185.787 408.132C186.435 407.028 186.759 405.684 186.759 404.1C186.759 402.516 186.447 401.172 185.823 400.068C185.199 398.964 184.383 398.148 183.375 397.62C182.367 397.068 181.275 396.792 180.099 396.792C178.899 396.792 177.795 397.068 176.787 397.62C175.803 398.148 175.011 398.964 174.411 400.068C173.811 401.172 173.511 402.516 173.511 404.1C173.511 405.708 173.799 407.064 174.375 408.168C174.975 409.272 175.767 410.1 176.751 410.652C177.735 411.18 178.815 411.444 179.991 411.444ZM197.691 397.908C198.339 396.78 199.299 395.844 200.571 395.1C201.867 394.332 203.367 393.948 205.071 393.948C206.823 393.948 208.407 394.368 209.823 395.208C211.263 396.048 212.391 397.236 213.207 398.772C214.023 400.284 214.431 402.048 214.431 404.064C214.431 406.056 214.023 407.832 213.207 409.392C212.391 410.952 211.263 412.164 209.823 413.028C208.407 413.892 206.823 414.324 205.071 414.324C203.391 414.324 201.903 413.952 200.607 413.208C199.335 412.44 198.363 411.492 197.691 410.364V423.36H194.415V394.272H197.691V397.908ZM211.083 404.064C211.083 402.576 210.783 401.28 210.183 400.176C209.583 399.072 208.767 398.232 207.735 397.656C206.727 397.08 205.611 396.792 204.387 396.792C203.187 396.792 202.071 397.092 201.039 397.692C200.031 398.268 199.215 399.12 198.591 400.248C197.991 401.352 197.691 402.636 197.691 404.1C197.691 405.588 197.991 406.896 198.591 408.024C199.215 409.128 200.031 409.98 201.039 410.58C202.071 411.156 203.187 411.444 204.387 411.444C205.611 411.444 206.727 411.156 207.735 410.58C208.767 409.98 209.583 409.128 210.183 408.024C210.783 406.896 211.083 405.576 211.083 404.064ZM242.467 393.912C244.003 393.912 245.371 394.236 246.571 394.884C247.771 395.508 248.719 396.456 249.415 397.728C250.111 399 250.459 400.548 250.459 402.372V414H247.219V402.84C247.219 400.872 246.727 399.372 245.743 398.34C244.783 397.284 243.475 396.756 241.819 396.756C240.115 396.756 238.759 397.308 237.751 398.412C236.743 399.492 236.239 401.064 236.239 403.128V414H232.999V402.84C232.999 400.872 232.507 399.372 231.523 398.34C230.563 397.284 229.255 396.756 227.599 396.756C225.895 396.756 224.539 397.308 223.531 398.412C222.523 399.492 222.019 401.064 222.019 403.128V414H218.743V394.272H222.019V397.116C222.667 396.084 223.531 395.292 224.611 394.74C225.715 394.188 226.927 393.912 228.247 393.912C229.903 393.912 231.367 394.284 232.639 395.028C233.911 395.772 234.859 396.864 235.483 398.304C236.035 396.912 236.947 395.832 238.219 395.064C239.491 394.296 240.907 393.912 242.467 393.912ZM273.833 403.38C273.833 404.004 273.797 404.664 273.725 405.36H257.957C258.077 407.304 258.737 408.828 259.937 409.932C261.161 411.012 262.637 411.552 264.365 411.552C265.781 411.552 266.957 411.228 267.893 410.58C268.853 409.908 269.525 409.02 269.909 407.916H273.437C272.909 409.812 271.853 411.36 270.269 412.56C268.685 413.736 266.717 414.324 264.365 414.324C262.493 414.324 260.813 413.904 259.325 413.064C257.861 412.224 256.709 411.036 255.869 409.5C255.029 407.94 254.609 406.14 254.609 404.1C254.609 402.06 255.017 400.272 255.833 398.736C256.649 397.2 257.789 396.024 259.253 395.208C260.741 394.368 262.445 393.948 264.365 393.948C266.237 393.948 267.893 394.356 269.333 395.172C270.773 395.988 271.877 397.116 272.645 398.556C273.437 399.972 273.833 401.58 273.833 403.38ZM270.449 402.696C270.449 401.448 270.173 400.38 269.621 399.492C269.069 398.58 268.313 397.896 267.353 397.44C266.417 396.96 265.373 396.72 264.221 396.72C262.565 396.72 261.149 397.248 259.973 398.304C258.821 399.36 258.161 400.824 257.993 402.696H270.449ZM287.769 393.912C290.169 393.912 292.113 394.644 293.601 396.108C295.089 397.548 295.833 399.636 295.833 402.372V414H292.593V402.84C292.593 400.872 292.101 399.372 291.117 398.34C290.133 397.284 288.789 396.756 287.085 396.756C285.357 396.756 283.977 397.296 282.945 398.376C281.937 399.456 281.433 401.028 281.433 403.092V414H278.157V394.272H281.433V397.08C282.081 396.072 282.957 395.292 284.061 394.74C285.189 394.188 286.425 393.912 287.769 393.912ZM305.18 396.972V408.6C305.18 409.56 305.384 410.244 305.792 410.652C306.2 411.036 306.908 411.228 307.916 411.228H310.328V414H307.376C305.552 414 304.184 413.58 303.272 412.74C302.36 411.9 301.904 410.52 301.904 408.6V396.972H299.348V394.272H301.904V389.304H305.18V394.272H310.328V396.972H305.18Z" fill="white"/>
</svg>
