<svg width="1772" height="1032" viewBox="0 0 1772 1032" fill="none" xmlns="http://www.w3.org/2000/svg">
<g clip-path="url(#clip0)" filter="url(#filter0_d)">
<rect width="1764" height="1024" transform="translate(4)" fill="black"/>
<g clip-path="url(#clip1)">
<path d="M525 434.017H4V868.183H525V434.017Z" fill="#033300"/>
<path d="M47.4167 506.378L4 578.739H90.8333L47.4167 506.378Z" fill="#444444" fill-opacity="0.1"/>
<path d="M47.4167 506.378L90.8333 434.017H4L47.4167 506.378Z" fill="black" fill-opacity="0.1"/>
<path d="M134.25 506.378L177.667 434.017H90.8334L134.25 506.378Z" fill="#AAAAAA" fill-opacity="0.1"/>
<path d="M221.083 506.378L177.667 578.739H264.5L221.083 506.378Z" fill="#DDDDDD" fill-opacity="0.1"/>
<path d="M221.083 506.378L264.5 434.017H177.667L221.083 506.378Z" fill="#999999" fill-opacity="0.1"/>
<path d="M307.917 506.378L264.5 578.739H351.333L307.917 506.378Z" fill="black" fill-opacity="0.1"/>
<path d="M307.917 506.378L351.333 434.017H264.5L307.917 506.378Z" fill="#DDDDDD" fill-opacity="0.1"/>
<path d="M394.75 506.378L351.333 578.739H438.167L394.75 506.378Z" fill="#444444" fill-opacity="0.1"/>
<path d="M394.75 506.378L438.167 434.017H351.333L394.75 506.378Z" fill="white" fill-opacity="0.1"/>
<path d="M481.583 506.378L438.167 578.739H525L481.583 506.378Z" fill="#DDDDDD" fill-opacity="0.1"/>
<path d="M481.583 506.378L525 434.017H438.167L481.583 506.378Z" fill="#444444" fill-opacity="0.1"/>
<path d="M47.4167 651.1L4 723.461H90.8333L47.4167 651.1Z" fill="#DDDDDD" fill-opacity="0.1"/>
<path d="M47.4167 651.1L90.8333 578.739H4L47.4167 651.1Z" fill="black" fill-opacity="0.1"/>
<path d="M134.25 651.1L90.8334 723.461H177.667L134.25 651.1Z" fill="#666666" fill-opacity="0.1"/>
<path d="M134.25 651.1L177.667 578.739H90.8334L134.25 651.1Z" fill="#AAAAAA" fill-opacity="0.1"/>
<path d="M221.083 651.1L177.667 723.461H264.5L221.083 651.1Z" fill="#DDDDDD" fill-opacity="0.1"/>
<path d="M221.083 651.1L264.5 578.739H177.667L221.083 651.1Z" fill="#999999" fill-opacity="0.1"/>
<path d="M307.917 651.1L264.5 723.461H351.333L307.917 651.1Z" fill="#999999" fill-opacity="0.1"/>
<path d="M307.917 651.1L351.333 578.739H264.5L307.917 651.1Z" fill="white" fill-opacity="0.1"/>
<path d="M394.75 651.1L351.333 723.461H438.167L394.75 651.1Z" fill="black" fill-opacity="0.1"/>
<path d="M394.75 651.1L438.167 578.739H351.333L394.75 651.1Z" fill="#DDDDDD" fill-opacity="0.1"/>
<path d="M481.583 651.1L438.167 723.461H525L481.583 651.1Z" fill="#AAAAAA" fill-opacity="0.1"/>
<path d="M481.583 651.1L525 578.739H438.167L481.583 651.1Z" fill="#444444" fill-opacity="0.1"/>
<path d="M47.4167 795.822L4 868.183H90.8333L47.4167 795.822Z" fill="#222222" fill-opacity="0.1"/>
<path d="M134.25 795.822L90.8334 868.183H177.667L134.25 795.822Z" fill="black" fill-opacity="0.1"/>
<path d="M134.25 795.822L177.667 723.461H90.8334L134.25 795.822Z" fill="#DDDDDD" fill-opacity="0.1"/>
<path d="M221.083 795.822L264.5 723.461H177.667L221.083 795.822Z" fill="black" fill-opacity="0.1"/>
<path d="M307.917 795.822L264.5 868.183H351.333L307.917 795.822Z" fill="black" fill-opacity="0.1"/>
<path d="M307.917 795.822L351.333 723.461H264.5L307.917 795.822Z" fill="#444444" fill-opacity="0.1"/>
<path d="M394.75 795.822L351.333 868.183H438.167L394.75 795.822Z" fill="#AAAAAA" fill-opacity="0.1"/>
<path d="M394.75 795.822L438.167 723.461H351.333L394.75 795.822Z" fill="#666666" fill-opacity="0.1"/>
<path d="M481.583 795.822L438.167 868.183H525L481.583 795.822Z" fill="#999999" fill-opacity="0.1"/>
<path d="M90.8334 434.017L47.4167 506.378H134.25L90.8334 434.017Z" fill="#999999" fill-opacity="0.1"/>
<path d="M177.667 434.017L134.25 506.378H221.083L177.667 434.017Z" fill="#444444" fill-opacity="0.1"/>
<path d="M264.5 434.017L221.083 506.378H307.917L264.5 434.017Z" fill="white" fill-opacity="0.1"/>
<path d="M438.167 434.017L394.75 506.378H481.583L438.167 434.017Z" fill="black" fill-opacity="0.1"/>
<path d="M4.00004 578.739L-39.4166 651.1H47.4167L4.00004 578.739Z" fill="#222222" fill-opacity="0.1"/>
<path d="M4.00004 578.739L47.4167 506.378H-39.4166L4.00004 578.739Z" fill="white" fill-opacity="0.1"/>
<path d="M90.8334 578.739L47.4167 651.1H134.25L90.8334 578.739Z" fill="white" fill-opacity="0.1"/>
<path d="M90.8334 578.739L134.25 506.378H47.4167L90.8334 578.739Z" fill="#666666" fill-opacity="0.1"/>
<path d="M177.667 578.739L134.25 651.1H221.083L177.667 578.739Z" fill="#222222" fill-opacity="0.1"/>
<path d="M177.667 578.739L221.083 506.378H134.25L177.667 578.739Z" fill="white" fill-opacity="0.1"/>
<path d="M264.5 578.739L221.083 651.1H307.917L264.5 578.739Z" fill="#444444" fill-opacity="0.1"/>
<path d="M264.5 578.739L307.917 506.378H221.083L264.5 578.739Z" fill="#222222" fill-opacity="0.1"/>
<path d="M351.333 578.739L307.917 651.1H394.75L351.333 578.739Z" fill="#AAAAAA" fill-opacity="0.1"/>
<path d="M351.333 578.739L394.75 506.378H307.917L351.333 578.739Z" fill="#666666" fill-opacity="0.1"/>
<path d="M438.167 578.739L394.75 651.1H481.583L438.167 578.739Z" fill="white" fill-opacity="0.1"/>
<path d="M438.167 578.739L481.583 506.378H394.75L438.167 578.739Z" fill="#999999" fill-opacity="0.1"/>
<path d="M4.00004 723.461L-39.4166 795.822H47.4167L4.00004 723.461Z" fill="black" fill-opacity="0.1"/>
<path d="M4.00004 723.461L47.4167 651.1H-39.4166L4.00004 723.461Z" fill="#666666" fill-opacity="0.1"/>
<path d="M90.8334 723.461L47.4167 795.822H134.25L90.8334 723.461Z" fill="#AAAAAA" fill-opacity="0.1"/>
<path d="M90.8334 723.461L134.25 651.1H47.4167L90.8334 723.461Z" fill="#444444" fill-opacity="0.1"/>
<path d="M177.667 723.461L134.25 795.822H221.083L177.667 723.461Z" fill="#444444" fill-opacity="0.1"/>
<path d="M177.667 723.461L221.083 651.1H134.25L177.667 723.461Z" fill="#999999" fill-opacity="0.1"/>
<path d="M264.5 723.461L307.917 651.1H221.083L264.5 723.461Z" fill="#666666" fill-opacity="0.1"/>
<path d="M351.333 723.461L307.917 795.822H394.75L351.333 723.461Z" fill="#222222" fill-opacity="0.1"/>
<path d="M438.167 723.461L394.75 795.822H481.583L438.167 723.461Z" fill="white" fill-opacity="0.1"/>
<path d="M438.167 723.461L481.583 651.1H394.75L438.167 723.461Z" fill="#222222" fill-opacity="0.1"/>
<path d="M4.00004 868.183L47.4167 795.822H-39.4166L4.00004 868.183Z" fill="#DDDDDD" fill-opacity="0.1"/>
<path d="M90.8334 868.183L134.25 795.822H47.4167L90.8334 868.183Z" fill="#444444" fill-opacity="0.1"/>
<path d="M177.667 868.183L221.083 795.822H134.25L177.667 868.183Z" fill="white" fill-opacity="0.1"/>
<path d="M264.5 868.183L307.917 795.822H221.083L264.5 868.183Z" fill="#AAAAAA" fill-opacity="0.1"/>
<path d="M351.333 868.183L394.75 795.822H307.917L351.333 868.183Z" fill="white" fill-opacity="0.1"/>
<path d="M438.167 868.183L481.583 795.822H394.75L438.167 868.183Z" fill="#222222" fill-opacity="0.1"/>
<path d="M525 578.739L481.583 651.1H568.417L525 578.739Z" fill="#222222" fill-opacity="0.1"/>
<path d="M525 578.739L568.417 506.378H481.583L525 578.739Z" fill="white" fill-opacity="0.1"/>
<path d="M525 723.461L481.583 795.822H568.417L525 723.461Z" fill="black" fill-opacity="0.1"/>
<path d="M525 723.461L568.417 651.1H481.583L525 723.461Z" fill="#666666" fill-opacity="0.1"/>
<path d="M525 868.183L568.417 795.822H481.583L525 868.183Z" fill="#DDDDDD" fill-opacity="0.1"/>
</g>
<g clip-path="url(#clip2)">
<path d="M525 434.017H4V868.183H525V434.017Z" fill="#033300"/>
<path d="M47.4167 506.378L4 578.739H90.8333L47.4167 506.378Z" fill="#444444" fill-opacity="0.1"/>
<path d="M47.4167 506.378L90.8333 434.017H4L47.4167 506.378Z" fill="black" fill-opacity="0.1"/>
<path d="M134.25 506.378L177.667 434.017H90.8334L134.25 506.378Z" fill="#AAAAAA" fill-opacity="0.1"/>
<path d="M221.083 506.378L177.667 578.739H264.5L221.083 506.378Z" fill="#DDDDDD" fill-opacity="0.1"/>
<path d="M221.083 506.378L264.5 434.017H177.667L221.083 506.378Z" fill="#999999" fill-opacity="0.1"/>
<path d="M307.917 506.378L264.5 578.739H351.333L307.917 506.378Z" fill="black" fill-opacity="0.1"/>
<path d="M307.917 506.378L351.333 434.017H264.5L307.917 506.378Z" fill="#DDDDDD" fill-opacity="0.1"/>
<path d="M394.75 506.378L351.333 578.739H438.167L394.75 506.378Z" fill="#444444" fill-opacity="0.1"/>
<path d="M394.75 506.378L438.167 434.017H351.333L394.75 506.378Z" fill="white" fill-opacity="0.1"/>
<path d="M481.583 506.378L438.167 578.739H525L481.583 506.378Z" fill="#DDDDDD" fill-opacity="0.1"/>
<path d="M481.583 506.378L525 434.017H438.167L481.583 506.378Z" fill="#444444" fill-opacity="0.1"/>
<path d="M47.4167 651.1L4 723.461H90.8333L47.4167 651.1Z" fill="#DDDDDD" fill-opacity="0.1"/>
<path d="M47.4167 651.1L90.8333 578.739H4L47.4167 651.1Z" fill="black" fill-opacity="0.1"/>
<path d="M134.25 651.1L90.8334 723.461H177.667L134.25 651.1Z" fill="#666666" fill-opacity="0.1"/>
<path d="M134.25 651.1L177.667 578.739H90.8334L134.25 651.1Z" fill="#AAAAAA" fill-opacity="0.1"/>
<path d="M221.083 651.1L177.667 723.461H264.5L221.083 651.1Z" fill="#DDDDDD" fill-opacity="0.1"/>
<path d="M221.083 651.1L264.5 578.739H177.667L221.083 651.1Z" fill="#999999" fill-opacity="0.1"/>
<path d="M307.917 651.1L264.5 723.461H351.333L307.917 651.1Z" fill="#999999" fill-opacity="0.1"/>
<path d="M307.917 651.1L351.333 578.739H264.5L307.917 651.1Z" fill="white" fill-opacity="0.1"/>
<path d="M394.75 651.1L351.333 723.461H438.167L394.75 651.1Z" fill="black" fill-opacity="0.1"/>
<path d="M394.75 651.1L438.167 578.739H351.333L394.75 651.1Z" fill="#DDDDDD" fill-opacity="0.1"/>
<path d="M481.583 651.1L438.167 723.461H525L481.583 651.1Z" fill="#AAAAAA" fill-opacity="0.1"/>
<path d="M481.583 651.1L525 578.739H438.167L481.583 651.1Z" fill="#444444" fill-opacity="0.1"/>
<path d="M47.4167 795.822L4 868.183H90.8333L47.4167 795.822Z" fill="#222222" fill-opacity="0.1"/>
<path d="M134.25 795.822L90.8334 868.183H177.667L134.25 795.822Z" fill="black" fill-opacity="0.1"/>
<path d="M134.25 795.822L177.667 723.461H90.8334L134.25 795.822Z" fill="#DDDDDD" fill-opacity="0.1"/>
<path d="M221.083 795.822L264.5 723.461H177.667L221.083 795.822Z" fill="black" fill-opacity="0.1"/>
<path d="M307.917 795.822L264.5 868.183H351.333L307.917 795.822Z" fill="black" fill-opacity="0.1"/>
<path d="M307.917 795.822L351.333 723.461H264.5L307.917 795.822Z" fill="#444444" fill-opacity="0.1"/>
<path d="M394.75 795.822L351.333 868.183H438.167L394.75 795.822Z" fill="#AAAAAA" fill-opacity="0.1"/>
<path d="M394.75 795.822L438.167 723.461H351.333L394.75 795.822Z" fill="#666666" fill-opacity="0.1"/>
<path d="M481.583 795.822L438.167 868.183H525L481.583 795.822Z" fill="#999999" fill-opacity="0.1"/>
<path d="M90.8334 434.017L47.4167 506.378H134.25L90.8334 434.017Z" fill="#999999" fill-opacity="0.1"/>
<path d="M177.667 434.017L134.25 506.378H221.083L177.667 434.017Z" fill="#444444" fill-opacity="0.1"/>
<path d="M264.5 434.017L221.083 506.378H307.917L264.5 434.017Z" fill="white" fill-opacity="0.1"/>
<path d="M438.167 434.017L394.75 506.378H481.583L438.167 434.017Z" fill="black" fill-opacity="0.1"/>
<path d="M4.00004 578.739L-39.4166 651.1H47.4167L4.00004 578.739Z" fill="#222222" fill-opacity="0.1"/>
<path d="M4.00004 578.739L47.4167 506.378H-39.4166L4.00004 578.739Z" fill="white" fill-opacity="0.1"/>
<path d="M90.8334 578.739L47.4167 651.1H134.25L90.8334 578.739Z" fill="white" fill-opacity="0.1"/>
<path d="M90.8334 578.739L134.25 506.378H47.4167L90.8334 578.739Z" fill="#666666" fill-opacity="0.1"/>
<path d="M177.667 578.739L134.25 651.1H221.083L177.667 578.739Z" fill="#222222" fill-opacity="0.1"/>
<path d="M177.667 578.739L221.083 506.378H134.25L177.667 578.739Z" fill="white" fill-opacity="0.1"/>
<path d="M264.5 578.739L221.083 651.1H307.917L264.5 578.739Z" fill="#444444" fill-opacity="0.1"/>
<path d="M264.5 578.739L307.917 506.378H221.083L264.5 578.739Z" fill="#222222" fill-opacity="0.1"/>
<path d="M351.333 578.739L307.917 651.1H394.75L351.333 578.739Z" fill="#AAAAAA" fill-opacity="0.1"/>
<path d="M351.333 578.739L394.75 506.378H307.917L351.333 578.739Z" fill="#666666" fill-opacity="0.1"/>
<path d="M438.167 578.739L394.75 651.1H481.583L438.167 578.739Z" fill="white" fill-opacity="0.1"/>
<path d="M438.167 578.739L481.583 506.378H394.75L438.167 578.739Z" fill="#999999" fill-opacity="0.1"/>
<path d="M4.00004 723.461L-39.4166 795.822H47.4167L4.00004 723.461Z" fill="black" fill-opacity="0.1"/>
<path d="M4.00004 723.461L47.4167 651.1H-39.4166L4.00004 723.461Z" fill="#666666" fill-opacity="0.1"/>
<path d="M90.8334 723.461L47.4167 795.822H134.25L90.8334 723.461Z" fill="#AAAAAA" fill-opacity="0.1"/>
<path d="M90.8334 723.461L134.25 651.1H47.4167L90.8334 723.461Z" fill="#444444" fill-opacity="0.1"/>
<path d="M177.667 723.461L134.25 795.822H221.083L177.667 723.461Z" fill="#444444" fill-opacity="0.1"/>
<path d="M177.667 723.461L221.083 651.1H134.25L177.667 723.461Z" fill="#999999" fill-opacity="0.1"/>
<path d="M264.5 723.461L307.917 651.1H221.083L264.5 723.461Z" fill="#666666" fill-opacity="0.1"/>
<path d="M351.333 723.461L307.917 795.822H394.75L351.333 723.461Z" fill="#222222" fill-opacity="0.1"/>
<path d="M438.167 723.461L394.75 795.822H481.583L438.167 723.461Z" fill="white" fill-opacity="0.1"/>
<path d="M438.167 723.461L481.583 651.1H394.75L438.167 723.461Z" fill="#222222" fill-opacity="0.1"/>
<path d="M4.00004 868.183L47.4167 795.822H-39.4166L4.00004 868.183Z" fill="#DDDDDD" fill-opacity="0.1"/>
<path d="M90.8334 868.183L134.25 795.822H47.4167L90.8334 868.183Z" fill="#444444" fill-opacity="0.1"/>
<path d="M177.667 868.183L221.083 795.822H134.25L177.667 868.183Z" fill="white" fill-opacity="0.1"/>
<path d="M264.5 868.183L307.917 795.822H221.083L264.5 868.183Z" fill="#AAAAAA" fill-opacity="0.1"/>
<path d="M351.333 868.183L394.75 795.822H307.917L351.333 868.183Z" fill="white" fill-opacity="0.1"/>
<path d="M438.167 868.183L481.583 795.822H394.75L438.167 868.183Z" fill="#222222" fill-opacity="0.1"/>
<path d="M525 578.739L481.583 651.1H568.417L525 578.739Z" fill="#222222" fill-opacity="0.1"/>
<path d="M525 578.739L568.417 506.378H481.583L525 578.739Z" fill="white" fill-opacity="0.1"/>
<path d="M525 723.461L481.583 795.822H568.417L525 723.461Z" fill="black" fill-opacity="0.1"/>
<path d="M525 723.461L568.417 651.1H481.583L525 723.461Z" fill="#666666" fill-opacity="0.1"/>
<path d="M525 868.183L568.417 795.822H481.583L525 868.183Z" fill="#DDDDDD" fill-opacity="0.1"/>
</g>
<g clip-path="url(#clip3)">
<path d="M1567 0.0166016H1046V434.183H1567V0.0166016Z" fill="#033300"/>
<path d="M1089.42 72.3777L1046 144.739H1132.83L1089.42 72.3777Z" fill="#444444" fill-opacity="0.1"/>
<path d="M1089.42 72.3777L1132.83 0.0166016H1046L1089.42 72.3777Z" fill="black" fill-opacity="0.1"/>
<path d="M1176.25 72.3777L1219.67 0.0166016H1132.83L1176.25 72.3777Z" fill="#AAAAAA" fill-opacity="0.1"/>
<path d="M1263.08 72.3777L1219.67 144.739H1306.5L1263.08 72.3777Z" fill="#DDDDDD" fill-opacity="0.1"/>
<path d="M1263.08 72.3777L1306.5 0.0166016H1219.67L1263.08 72.3777Z" fill="#999999" fill-opacity="0.1"/>
<path d="M1349.92 72.3777L1306.5 144.739H1393.33L1349.92 72.3777Z" fill="black" fill-opacity="0.1"/>
<path d="M1349.92 72.3777L1393.33 0.0166016H1306.5L1349.92 72.3777Z" fill="#DDDDDD" fill-opacity="0.1"/>
<path d="M1436.75 72.3777L1393.33 144.739H1480.17L1436.75 72.3777Z" fill="#444444" fill-opacity="0.1"/>
<path d="M1436.75 72.3777L1480.17 0.0166016H1393.33L1436.75 72.3777Z" fill="white" fill-opacity="0.1"/>
<path d="M1523.58 72.3777L1480.17 144.739H1567L1523.58 72.3777Z" fill="#DDDDDD" fill-opacity="0.1"/>
<path d="M1523.58 72.3777L1567 0.0166016H1480.17L1523.58 72.3777Z" fill="#444444" fill-opacity="0.1"/>
<path d="M1089.42 217.1L1046 289.461H1132.83L1089.42 217.1Z" fill="#DDDDDD" fill-opacity="0.1"/>
<path d="M1089.42 217.1L1132.83 144.739H1046L1089.42 217.1Z" fill="black" fill-opacity="0.1"/>
<path d="M1176.25 217.1L1132.83 289.461H1219.67L1176.25 217.1Z" fill="#666666" fill-opacity="0.1"/>
<path d="M1176.25 217.1L1219.67 144.739H1132.83L1176.25 217.1Z" fill="#AAAAAA" fill-opacity="0.1"/>
<path d="M1263.08 217.1L1219.67 289.461H1306.5L1263.08 217.1Z" fill="#DDDDDD" fill-opacity="0.1"/>
<path d="M1263.08 217.1L1306.5 144.739H1219.67L1263.08 217.1Z" fill="#999999" fill-opacity="0.1"/>
<path d="M1349.92 217.1L1306.5 289.461H1393.33L1349.92 217.1Z" fill="#999999" fill-opacity="0.1"/>
<path d="M1349.92 217.1L1393.33 144.739H1306.5L1349.92 217.1Z" fill="white" fill-opacity="0.1"/>
<path d="M1436.75 217.1L1393.33 289.461H1480.17L1436.75 217.1Z" fill="black" fill-opacity="0.1"/>
<path d="M1436.75 217.1L1480.17 144.739H1393.33L1436.75 217.1Z" fill="#DDDDDD" fill-opacity="0.1"/>
<path d="M1523.58 217.1L1480.17 289.461H1567L1523.58 217.1Z" fill="#AAAAAA" fill-opacity="0.1"/>
<path d="M1523.58 217.1L1567 144.739H1480.17L1523.58 217.1Z" fill="#444444" fill-opacity="0.1"/>
<path d="M1089.42 361.822L1046 434.183H1132.83L1089.42 361.822Z" fill="#222222" fill-opacity="0.1"/>
<path d="M1176.25 361.822L1132.83 434.183H1219.67L1176.25 361.822Z" fill="black" fill-opacity="0.1"/>
<path d="M1176.25 361.822L1219.67 289.461H1132.83L1176.25 361.822Z" fill="#DDDDDD" fill-opacity="0.1"/>
<path d="M1263.08 361.822L1306.5 289.461H1219.67L1263.08 361.822Z" fill="black" fill-opacity="0.1"/>
<path d="M1349.92 361.822L1306.5 434.183H1393.33L1349.92 361.822Z" fill="black" fill-opacity="0.1"/>
<path d="M1349.92 361.822L1393.33 289.461H1306.5L1349.92 361.822Z" fill="#444444" fill-opacity="0.1"/>
<path d="M1436.75 361.822L1393.33 434.183H1480.17L1436.75 361.822Z" fill="#AAAAAA" fill-opacity="0.1"/>
<path d="M1436.75 361.822L1480.17 289.461H1393.33L1436.75 361.822Z" fill="#666666" fill-opacity="0.1"/>
<path d="M1523.58 361.822L1480.17 434.183H1567L1523.58 361.822Z" fill="#999999" fill-opacity="0.1"/>
<path d="M1132.83 0.0166016L1089.42 72.3777H1176.25L1132.83 0.0166016Z" fill="#999999" fill-opacity="0.1"/>
<path d="M1219.67 0.0166016L1176.25 72.3777H1263.08L1219.67 0.0166016Z" fill="#444444" fill-opacity="0.1"/>
<path d="M1306.5 0.0166016L1263.08 72.3777H1349.92L1306.5 0.0166016Z" fill="white" fill-opacity="0.1"/>
<path d="M1480.17 0.0166016L1436.75 72.3777H1523.58L1480.17 0.0166016Z" fill="black" fill-opacity="0.1"/>
<path d="M1046 144.739L1002.58 217.1H1089.42L1046 144.739Z" fill="#222222" fill-opacity="0.1"/>
<path d="M1046 144.739L1089.42 72.3777H1002.58L1046 144.739Z" fill="white" fill-opacity="0.1"/>
<path d="M1132.83 144.739L1089.42 217.1H1176.25L1132.83 144.739Z" fill="white" fill-opacity="0.1"/>
<path d="M1132.83 144.739L1176.25 72.3777H1089.42L1132.83 144.739Z" fill="#666666" fill-opacity="0.1"/>
<path d="M1219.67 144.739L1176.25 217.1H1263.08L1219.67 144.739Z" fill="#222222" fill-opacity="0.1"/>
<path d="M1219.67 144.739L1263.08 72.3777H1176.25L1219.67 144.739Z" fill="white" fill-opacity="0.1"/>
<path d="M1306.5 144.739L1263.08 217.1H1349.92L1306.5 144.739Z" fill="#444444" fill-opacity="0.1"/>
<path d="M1306.5 144.739L1349.92 72.3777H1263.08L1306.5 144.739Z" fill="#222222" fill-opacity="0.1"/>
<path d="M1393.33 144.739L1349.92 217.1H1436.75L1393.33 144.739Z" fill="#AAAAAA" fill-opacity="0.1"/>
<path d="M1393.33 144.739L1436.75 72.3777H1349.92L1393.33 144.739Z" fill="#666666" fill-opacity="0.1"/>
<path d="M1480.17 144.739L1436.75 217.1H1523.58L1480.17 144.739Z" fill="white" fill-opacity="0.1"/>
<path d="M1480.17 144.739L1523.58 72.3777H1436.75L1480.17 144.739Z" fill="#999999" fill-opacity="0.1"/>
<path d="M1046 289.461L1002.58 361.822H1089.42L1046 289.461Z" fill="black" fill-opacity="0.1"/>
<path d="M1046 289.461L1089.42 217.1H1002.58L1046 289.461Z" fill="#666666" fill-opacity="0.1"/>
<path d="M1132.83 289.461L1089.42 361.822H1176.25L1132.83 289.461Z" fill="#AAAAAA" fill-opacity="0.1"/>
<path d="M1132.83 289.461L1176.25 217.1H1089.42L1132.83 289.461Z" fill="#444444" fill-opacity="0.1"/>
<path d="M1219.67 289.461L1176.25 361.822H1263.08L1219.67 289.461Z" fill="#444444" fill-opacity="0.1"/>
<path d="M1219.67 289.461L1263.08 217.1H1176.25L1219.67 289.461Z" fill="#999999" fill-opacity="0.1"/>
<path d="M1306.5 289.461L1349.92 217.1H1263.08L1306.5 289.461Z" fill="#666666" fill-opacity="0.1"/>
<path d="M1393.33 289.461L1349.92 361.822H1436.75L1393.33 289.461Z" fill="#222222" fill-opacity="0.1"/>
<path d="M1480.17 289.461L1436.75 361.822H1523.58L1480.17 289.461Z" fill="white" fill-opacity="0.1"/>
<path d="M1480.17 289.461L1523.58 217.1H1436.75L1480.17 289.461Z" fill="#222222" fill-opacity="0.1"/>
<path d="M1046 434.183L1089.42 361.822H1002.58L1046 434.183Z" fill="#DDDDDD" fill-opacity="0.1"/>
<path d="M1132.83 434.183L1176.25 361.822H1089.42L1132.83 434.183Z" fill="#444444" fill-opacity="0.1"/>
<path d="M1219.67 434.183L1263.08 361.822H1176.25L1219.67 434.183Z" fill="white" fill-opacity="0.1"/>
<path d="M1306.5 434.183L1349.92 361.822H1263.08L1306.5 434.183Z" fill="#AAAAAA" fill-opacity="0.1"/>
<path d="M1393.33 434.183L1436.75 361.822H1349.92L1393.33 434.183Z" fill="white" fill-opacity="0.1"/>
<path d="M1480.17 434.183L1523.58 361.822H1436.75L1480.17 434.183Z" fill="#222222" fill-opacity="0.1"/>
<path d="M1567 144.739L1523.58 217.1H1610.42L1567 144.739Z" fill="#222222" fill-opacity="0.1"/>
<path d="M1567 144.739L1610.42 72.3777H1523.58L1567 144.739Z" fill="white" fill-opacity="0.1"/>
<path d="M1567 289.461L1523.58 361.822H1610.42L1567 289.461Z" fill="black" fill-opacity="0.1"/>
<path d="M1567 289.461L1610.42 217.1H1523.58L1567 289.461Z" fill="#666666" fill-opacity="0.1"/>
<path d="M1567 434.183L1610.42 361.822H1523.58L1567 434.183Z" fill="#DDDDDD" fill-opacity="0.1"/>
</g>
<g clip-path="url(#clip4)">
<path d="M1567 434.017H1046V868.183H1567V434.017Z" fill="#033300"/>
<path d="M1089.42 506.378L1046 578.739H1132.83L1089.42 506.378Z" fill="#444444" fill-opacity="0.1"/>
<path d="M1089.42 506.378L1132.83 434.017H1046L1089.42 506.378Z" fill="black" fill-opacity="0.1"/>
<path d="M1176.25 506.378L1219.67 434.017H1132.83L1176.25 506.378Z" fill="#AAAAAA" fill-opacity="0.1"/>
<path d="M1263.08 506.378L1219.67 578.739H1306.5L1263.08 506.378Z" fill="#DDDDDD" fill-opacity="0.1"/>
<path d="M1263.08 506.378L1306.5 434.017H1219.67L1263.08 506.378Z" fill="#999999" fill-opacity="0.1"/>
<path d="M1349.92 506.378L1306.5 578.739H1393.33L1349.92 506.378Z" fill="black" fill-opacity="0.1"/>
<path d="M1349.92 506.378L1393.33 434.017H1306.5L1349.92 506.378Z" fill="#DDDDDD" fill-opacity="0.1"/>
<path d="M1436.75 506.378L1393.33 578.739H1480.17L1436.75 506.378Z" fill="#444444" fill-opacity="0.1"/>
<path d="M1436.75 506.378L1480.17 434.017H1393.33L1436.75 506.378Z" fill="white" fill-opacity="0.1"/>
<path d="M1523.58 506.378L1480.17 578.739H1567L1523.58 506.378Z" fill="#DDDDDD" fill-opacity="0.1"/>
<path d="M1523.58 506.378L1567 434.017H1480.17L1523.58 506.378Z" fill="#444444" fill-opacity="0.1"/>
<path d="M1089.42 651.1L1046 723.461H1132.83L1089.42 651.1Z" fill="#DDDDDD" fill-opacity="0.1"/>
<path d="M1089.42 651.1L1132.83 578.739H1046L1089.42 651.1Z" fill="black" fill-opacity="0.1"/>
<path d="M1176.25 651.1L1132.83 723.461H1219.67L1176.25 651.1Z" fill="#666666" fill-opacity="0.1"/>
<path d="M1176.25 651.1L1219.67 578.739H1132.83L1176.25 651.1Z" fill="#AAAAAA" fill-opacity="0.1"/>
<path d="M1263.08 651.1L1219.67 723.461H1306.5L1263.08 651.1Z" fill="#DDDDDD" fill-opacity="0.1"/>
<path d="M1263.08 651.1L1306.5 578.739H1219.67L1263.08 651.1Z" fill="#999999" fill-opacity="0.1"/>
<path d="M1349.92 651.1L1306.5 723.461H1393.33L1349.92 651.1Z" fill="#999999" fill-opacity="0.1"/>
<path d="M1349.92 651.1L1393.33 578.739H1306.5L1349.92 651.1Z" fill="white" fill-opacity="0.1"/>
<path d="M1436.75 651.1L1393.33 723.461H1480.17L1436.75 651.1Z" fill="black" fill-opacity="0.1"/>
<path d="M1436.75 651.1L1480.17 578.739H1393.33L1436.75 651.1Z" fill="#DDDDDD" fill-opacity="0.1"/>
<path d="M1523.58 651.1L1480.17 723.461H1567L1523.58 651.1Z" fill="#AAAAAA" fill-opacity="0.1"/>
<path d="M1523.58 651.1L1567 578.739H1480.17L1523.58 651.1Z" fill="#444444" fill-opacity="0.1"/>
<path d="M1089.42 795.822L1046 868.183H1132.83L1089.42 795.822Z" fill="#222222" fill-opacity="0.1"/>
<path d="M1176.25 795.822L1132.83 868.183H1219.67L1176.25 795.822Z" fill="black" fill-opacity="0.1"/>
<path d="M1176.25 795.822L1219.67 723.461H1132.83L1176.25 795.822Z" fill="#DDDDDD" fill-opacity="0.1"/>
<path d="M1263.08 795.822L1306.5 723.461H1219.67L1263.08 795.822Z" fill="black" fill-opacity="0.1"/>
<path d="M1349.92 795.822L1306.5 868.183H1393.33L1349.92 795.822Z" fill="black" fill-opacity="0.1"/>
<path d="M1349.92 795.822L1393.33 723.461H1306.5L1349.92 795.822Z" fill="#444444" fill-opacity="0.1"/>
<path d="M1436.75 795.822L1393.33 868.183H1480.17L1436.75 795.822Z" fill="#AAAAAA" fill-opacity="0.1"/>
<path d="M1436.75 795.822L1480.17 723.461H1393.33L1436.75 795.822Z" fill="#666666" fill-opacity="0.1"/>
<path d="M1523.58 795.822L1480.17 868.183H1567L1523.58 795.822Z" fill="#999999" fill-opacity="0.1"/>
<path d="M1132.83 434.017L1089.42 506.378H1176.25L1132.83 434.017Z" fill="#999999" fill-opacity="0.1"/>
<path d="M1219.67 434.017L1176.25 506.378H1263.08L1219.67 434.017Z" fill="#444444" fill-opacity="0.1"/>
<path d="M1306.5 434.017L1263.08 506.378H1349.92L1306.5 434.017Z" fill="white" fill-opacity="0.1"/>
<path d="M1480.17 434.017L1436.75 506.378H1523.58L1480.17 434.017Z" fill="black" fill-opacity="0.1"/>
<path d="M1046 578.739L1002.58 651.1H1089.42L1046 578.739Z" fill="#222222" fill-opacity="0.1"/>
<path d="M1046 578.739L1089.42 506.378H1002.58L1046 578.739Z" fill="white" fill-opacity="0.1"/>
<path d="M1132.83 578.739L1089.42 651.1H1176.25L1132.83 578.739Z" fill="white" fill-opacity="0.1"/>
<path d="M1132.83 578.739L1176.25 506.378H1089.42L1132.83 578.739Z" fill="#666666" fill-opacity="0.1"/>
<path d="M1219.67 578.739L1176.25 651.1H1263.08L1219.67 578.739Z" fill="#222222" fill-opacity="0.1"/>
<path d="M1219.67 578.739L1263.08 506.378H1176.25L1219.67 578.739Z" fill="white" fill-opacity="0.1"/>
<path d="M1306.5 578.739L1263.08 651.1H1349.92L1306.5 578.739Z" fill="#444444" fill-opacity="0.1"/>
<path d="M1306.5 578.739L1349.92 506.378H1263.08L1306.5 578.739Z" fill="#222222" fill-opacity="0.1"/>
<path d="M1393.33 578.739L1349.92 651.1H1436.75L1393.33 578.739Z" fill="#AAAAAA" fill-opacity="0.1"/>
<path d="M1393.33 578.739L1436.75 506.378H1349.92L1393.33 578.739Z" fill="#666666" fill-opacity="0.1"/>
<path d="M1480.17 578.739L1436.75 651.1H1523.58L1480.17 578.739Z" fill="white" fill-opacity="0.1"/>
<path d="M1480.17 578.739L1523.58 506.378H1436.75L1480.17 578.739Z" fill="#999999" fill-opacity="0.1"/>
<path d="M1046 723.461L1002.58 795.822H1089.42L1046 723.461Z" fill="black" fill-opacity="0.1"/>
<path d="M1046 723.461L1089.42 651.1H1002.58L1046 723.461Z" fill="#666666" fill-opacity="0.1"/>
<path d="M1132.83 723.461L1089.42 795.822H1176.25L1132.83 723.461Z" fill="#AAAAAA" fill-opacity="0.1"/>
<path d="M1132.83 723.461L1176.25 651.1H1089.42L1132.83 723.461Z" fill="#444444" fill-opacity="0.1"/>
<path d="M1219.67 723.461L1176.25 795.822H1263.08L1219.67 723.461Z" fill="#444444" fill-opacity="0.1"/>
<path d="M1219.67 723.461L1263.08 651.1H1176.25L1219.67 723.461Z" fill="#999999" fill-opacity="0.1"/>
<path d="M1306.5 723.461L1349.92 651.1H1263.08L1306.5 723.461Z" fill="#666666" fill-opacity="0.1"/>
<path d="M1393.33 723.461L1349.92 795.822H1436.75L1393.33 723.461Z" fill="#222222" fill-opacity="0.1"/>
<path d="M1480.17 723.461L1436.75 795.822H1523.58L1480.17 723.461Z" fill="white" fill-opacity="0.1"/>
<path d="M1480.17 723.461L1523.58 651.1H1436.75L1480.17 723.461Z" fill="#222222" fill-opacity="0.1"/>
<path d="M1046 868.183L1089.42 795.822H1002.58L1046 868.183Z" fill="#DDDDDD" fill-opacity="0.1"/>
<path d="M1132.83 868.183L1176.25 795.822H1089.42L1132.83 868.183Z" fill="#444444" fill-opacity="0.1"/>
<path d="M1219.67 868.183L1263.08 795.822H1176.25L1219.67 868.183Z" fill="white" fill-opacity="0.1"/>
<path d="M1306.5 868.183L1349.92 795.822H1263.08L1306.5 868.183Z" fill="#AAAAAA" fill-opacity="0.1"/>
<path d="M1393.33 868.183L1436.75 795.822H1349.92L1393.33 868.183Z" fill="white" fill-opacity="0.1"/>
<path d="M1480.17 868.183L1523.58 795.822H1436.75L1480.17 868.183Z" fill="#222222" fill-opacity="0.1"/>
<path d="M1567 578.739L1523.58 651.1H1610.42L1567 578.739Z" fill="#222222" fill-opacity="0.1"/>
<path d="M1567 578.739L1610.42 506.378H1523.58L1567 578.739Z" fill="white" fill-opacity="0.1"/>
<path d="M1567 723.461L1523.58 795.822H1610.42L1567 723.461Z" fill="black" fill-opacity="0.1"/>
<path d="M1567 723.461L1610.42 651.1H1523.58L1567 723.461Z" fill="#666666" fill-opacity="0.1"/>
<path d="M1567 868.183L1610.42 795.822H1523.58L1567 868.183Z" fill="#DDDDDD" fill-opacity="0.1"/>
</g>
<g clip-path="url(#clip5)">
<path d="M1567 434.017H1046V868.183H1567V434.017Z" fill="#033300"/>
<path d="M1089.42 506.378L1046 578.739H1132.83L1089.42 506.378Z" fill="#444444" fill-opacity="0.1"/>
<path d="M1089.42 506.378L1132.83 434.017H1046L1089.42 506.378Z" fill="black" fill-opacity="0.1"/>
<path d="M1176.25 506.378L1219.67 434.017H1132.83L1176.25 506.378Z" fill="#AAAAAA" fill-opacity="0.1"/>
<path d="M1263.08 506.378L1219.67 578.739H1306.5L1263.08 506.378Z" fill="#DDDDDD" fill-opacity="0.1"/>
<path d="M1263.08 506.378L1306.5 434.017H1219.67L1263.08 506.378Z" fill="#999999" fill-opacity="0.1"/>
<path d="M1349.92 506.378L1306.5 578.739H1393.33L1349.92 506.378Z" fill="black" fill-opacity="0.1"/>
<path d="M1349.92 506.378L1393.33 434.017H1306.5L1349.92 506.378Z" fill="#DDDDDD" fill-opacity="0.1"/>
<path d="M1436.75 506.378L1393.33 578.739H1480.17L1436.75 506.378Z" fill="#444444" fill-opacity="0.1"/>
<path d="M1436.75 506.378L1480.17 434.017H1393.33L1436.75 506.378Z" fill="white" fill-opacity="0.1"/>
<path d="M1523.58 506.378L1480.17 578.739H1567L1523.58 506.378Z" fill="#DDDDDD" fill-opacity="0.1"/>
<path d="M1523.58 506.378L1567 434.017H1480.17L1523.58 506.378Z" fill="#444444" fill-opacity="0.1"/>
<path d="M1089.42 651.1L1046 723.461H1132.83L1089.42 651.1Z" fill="#DDDDDD" fill-opacity="0.1"/>
<path d="M1089.42 651.1L1132.83 578.739H1046L1089.42 651.1Z" fill="black" fill-opacity="0.1"/>
<path d="M1176.25 651.1L1132.83 723.461H1219.67L1176.25 651.1Z" fill="#666666" fill-opacity="0.1"/>
<path d="M1176.25 651.1L1219.67 578.739H1132.83L1176.25 651.1Z" fill="#AAAAAA" fill-opacity="0.1"/>
<path d="M1263.08 651.1L1219.67 723.461H1306.5L1263.08 651.1Z" fill="#DDDDDD" fill-opacity="0.1"/>
<path d="M1263.08 651.1L1306.5 578.739H1219.67L1263.08 651.1Z" fill="#999999" fill-opacity="0.1"/>
<path d="M1349.92 651.1L1306.5 723.461H1393.33L1349.92 651.1Z" fill="#999999" fill-opacity="0.1"/>
<path d="M1349.92 651.1L1393.33 578.739H1306.5L1349.92 651.1Z" fill="white" fill-opacity="0.1"/>
<path d="M1436.75 651.1L1393.33 723.461H1480.17L1436.75 651.1Z" fill="black" fill-opacity="0.1"/>
<path d="M1436.75 651.1L1480.17 578.739H1393.33L1436.75 651.1Z" fill="#DDDDDD" fill-opacity="0.1"/>
<path d="M1523.58 651.1L1480.17 723.461H1567L1523.58 651.1Z" fill="#AAAAAA" fill-opacity="0.1"/>
<path d="M1523.58 651.1L1567 578.739H1480.17L1523.58 651.1Z" fill="#444444" fill-opacity="0.1"/>
<path d="M1089.42 795.822L1046 868.183H1132.83L1089.42 795.822Z" fill="#222222" fill-opacity="0.1"/>
<path d="M1176.25 795.822L1132.83 868.183H1219.67L1176.25 795.822Z" fill="black" fill-opacity="0.1"/>
<path d="M1176.25 795.822L1219.67 723.461H1132.83L1176.25 795.822Z" fill="#DDDDDD" fill-opacity="0.1"/>
<path d="M1263.08 795.822L1306.5 723.461H1219.67L1263.08 795.822Z" fill="black" fill-opacity="0.1"/>
<path d="M1349.92 795.822L1306.5 868.183H1393.33L1349.92 795.822Z" fill="black" fill-opacity="0.1"/>
<path d="M1349.92 795.822L1393.33 723.461H1306.5L1349.92 795.822Z" fill="#444444" fill-opacity="0.1"/>
<path d="M1436.75 795.822L1393.33 868.183H1480.17L1436.75 795.822Z" fill="#AAAAAA" fill-opacity="0.1"/>
<path d="M1436.75 795.822L1480.17 723.461H1393.33L1436.75 795.822Z" fill="#666666" fill-opacity="0.1"/>
<path d="M1523.58 795.822L1480.17 868.183H1567L1523.58 795.822Z" fill="#999999" fill-opacity="0.1"/>
<path d="M1132.83 434.017L1089.42 506.378H1176.25L1132.83 434.017Z" fill="#999999" fill-opacity="0.1"/>
<path d="M1219.67 434.017L1176.25 506.378H1263.08L1219.67 434.017Z" fill="#444444" fill-opacity="0.1"/>
<path d="M1306.5 434.017L1263.08 506.378H1349.92L1306.5 434.017Z" fill="white" fill-opacity="0.1"/>
<path d="M1480.17 434.017L1436.75 506.378H1523.58L1480.17 434.017Z" fill="black" fill-opacity="0.1"/>
<path d="M1046 578.739L1002.58 651.1H1089.42L1046 578.739Z" fill="#222222" fill-opacity="0.1"/>
<path d="M1046 578.739L1089.42 506.378H1002.58L1046 578.739Z" fill="white" fill-opacity="0.1"/>
<path d="M1132.83 578.739L1089.42 651.1H1176.25L1132.83 578.739Z" fill="white" fill-opacity="0.1"/>
<path d="M1132.83 578.739L1176.25 506.378H1089.42L1132.83 578.739Z" fill="#666666" fill-opacity="0.1"/>
<path d="M1219.67 578.739L1176.25 651.1H1263.08L1219.67 578.739Z" fill="#222222" fill-opacity="0.1"/>
<path d="M1219.67 578.739L1263.08 506.378H1176.25L1219.67 578.739Z" fill="white" fill-opacity="0.1"/>
<path d="M1306.5 578.739L1263.08 651.1H1349.92L1306.5 578.739Z" fill="#444444" fill-opacity="0.1"/>
<path d="M1306.5 578.739L1349.92 506.378H1263.08L1306.5 578.739Z" fill="#222222" fill-opacity="0.1"/>
<path d="M1393.33 578.739L1349.92 651.1H1436.75L1393.33 578.739Z" fill="#AAAAAA" fill-opacity="0.1"/>
<path d="M1393.33 578.739L1436.75 506.378H1349.92L1393.33 578.739Z" fill="#666666" fill-opacity="0.1"/>
<path d="M1480.17 578.739L1436.75 651.1H1523.58L1480.17 578.739Z" fill="white" fill-opacity="0.1"/>
<path d="M1480.17 578.739L1523.58 506.378H1436.75L1480.17 578.739Z" fill="#999999" fill-opacity="0.1"/>
<path d="M1046 723.461L1002.58 795.822H1089.42L1046 723.461Z" fill="black" fill-opacity="0.1"/>
<path d="M1046 723.461L1089.42 651.1H1002.58L1046 723.461Z" fill="#666666" fill-opacity="0.1"/>
<path d="M1132.83 723.461L1089.42 795.822H1176.25L1132.83 723.461Z" fill="#AAAAAA" fill-opacity="0.1"/>
<path d="M1132.83 723.461L1176.25 651.1H1089.42L1132.83 723.461Z" fill="#444444" fill-opacity="0.1"/>
<path d="M1219.67 723.461L1176.25 795.822H1263.08L1219.67 723.461Z" fill="#444444" fill-opacity="0.1"/>
<path d="M1219.67 723.461L1263.08 651.1H1176.25L1219.67 723.461Z" fill="#999999" fill-opacity="0.1"/>
<path d="M1306.5 723.461L1349.92 651.1H1263.08L1306.5 723.461Z" fill="#666666" fill-opacity="0.1"/>
<path d="M1393.33 723.461L1349.92 795.822H1436.75L1393.33 723.461Z" fill="#222222" fill-opacity="0.1"/>
<path d="M1480.17 723.461L1436.75 795.822H1523.58L1480.17 723.461Z" fill="white" fill-opacity="0.1"/>
<path d="M1480.17 723.461L1523.58 651.1H1436.75L1480.17 723.461Z" fill="#222222" fill-opacity="0.1"/>
<path d="M1046 868.183L1089.42 795.822H1002.58L1046 868.183Z" fill="#DDDDDD" fill-opacity="0.1"/>
<path d="M1132.83 868.183L1176.25 795.822H1089.42L1132.83 868.183Z" fill="#444444" fill-opacity="0.1"/>
<path d="M1219.67 868.183L1263.08 795.822H1176.25L1219.67 868.183Z" fill="white" fill-opacity="0.1"/>
<path d="M1306.5 868.183L1349.92 795.822H1263.08L1306.5 868.183Z" fill="#AAAAAA" fill-opacity="0.1"/>
<path d="M1393.33 868.183L1436.75 795.822H1349.92L1393.33 868.183Z" fill="white" fill-opacity="0.1"/>
<path d="M1480.17 868.183L1523.58 795.822H1436.75L1480.17 868.183Z" fill="#222222" fill-opacity="0.1"/>
<path d="M1567 578.739L1523.58 651.1H1610.42L1567 578.739Z" fill="#222222" fill-opacity="0.1"/>
<path d="M1567 578.739L1610.42 506.378H1523.58L1567 578.739Z" fill="white" fill-opacity="0.1"/>
<path d="M1567 723.461L1523.58 795.822H1610.42L1567 723.461Z" fill="black" fill-opacity="0.1"/>
<path d="M1567 723.461L1610.42 651.1H1523.58L1567 723.461Z" fill="#666666" fill-opacity="0.1"/>
<path d="M1567 868.183L1610.42 795.822H1523.58L1567 868.183Z" fill="#DDDDDD" fill-opacity="0.1"/>
</g>
<g clip-path="url(#clip6)">
<path d="M1046 0.0166016H525V434.183H1046V0.0166016Z" fill="#033300"/>
<path d="M568.417 72.3777L525 144.739H611.833L568.417 72.3777Z" fill="#444444" fill-opacity="0.1"/>
<path d="M568.417 72.3777L611.833 0.0166016H525L568.417 72.3777Z" fill="black" fill-opacity="0.1"/>
<path d="M655.25 72.3777L698.667 0.0166016H611.833L655.25 72.3777Z" fill="#AAAAAA" fill-opacity="0.1"/>
<path d="M742.083 72.3777L698.667 144.739H785.5L742.083 72.3777Z" fill="#DDDDDD" fill-opacity="0.1"/>
<path d="M742.083 72.3777L785.5 0.0166016H698.667L742.083 72.3777Z" fill="#999999" fill-opacity="0.1"/>
<path d="M828.917 72.3777L785.5 144.739H872.333L828.917 72.3777Z" fill="black" fill-opacity="0.1"/>
<path d="M828.917 72.3777L872.333 0.0166016H785.5L828.917 72.3777Z" fill="#DDDDDD" fill-opacity="0.1"/>
<path d="M915.75 72.3777L872.333 144.739H959.167L915.75 72.3777Z" fill="#444444" fill-opacity="0.1"/>
<path d="M915.75 72.3777L959.167 0.0166016H872.333L915.75 72.3777Z" fill="white" fill-opacity="0.1"/>
<path d="M1002.58 72.3777L959.167 144.739H1046L1002.58 72.3777Z" fill="#DDDDDD" fill-opacity="0.1"/>
<path d="M1002.58 72.3777L1046 0.0166016H959.167L1002.58 72.3777Z" fill="#444444" fill-opacity="0.1"/>
<path d="M568.417 217.1L525 289.461H611.833L568.417 217.1Z" fill="#DDDDDD" fill-opacity="0.1"/>
<path d="M568.417 217.1L611.833 144.739H525L568.417 217.1Z" fill="black" fill-opacity="0.1"/>
<path d="M655.25 217.1L611.833 289.461H698.667L655.25 217.1Z" fill="#666666" fill-opacity="0.1"/>
<path d="M655.25 217.1L698.667 144.739H611.833L655.25 217.1Z" fill="#AAAAAA" fill-opacity="0.1"/>
<path d="M742.083 217.1L698.667 289.461H785.5L742.083 217.1Z" fill="#DDDDDD" fill-opacity="0.1"/>
<path d="M742.083 217.1L785.5 144.739H698.667L742.083 217.1Z" fill="#999999" fill-opacity="0.1"/>
<path d="M828.917 217.1L785.5 289.461H872.333L828.917 217.1Z" fill="#999999" fill-opacity="0.1"/>
<path d="M828.917 217.1L872.333 144.739H785.5L828.917 217.1Z" fill="white" fill-opacity="0.1"/>
<path d="M915.75 217.1L872.333 289.461H959.167L915.75 217.1Z" fill="black" fill-opacity="0.1"/>
<path d="M915.75 217.1L959.167 144.739H872.333L915.75 217.1Z" fill="#DDDDDD" fill-opacity="0.1"/>
<path d="M1002.58 217.1L959.167 289.461H1046L1002.58 217.1Z" fill="#AAAAAA" fill-opacity="0.1"/>
<path d="M1002.58 217.1L1046 144.739H959.167L1002.58 217.1Z" fill="#444444" fill-opacity="0.1"/>
<path d="M568.417 361.822L525 434.183H611.833L568.417 361.822Z" fill="#222222" fill-opacity="0.1"/>
<path d="M655.25 361.822L611.833 434.183H698.667L655.25 361.822Z" fill="black" fill-opacity="0.1"/>
<path d="M655.25 361.822L698.667 289.461H611.833L655.25 361.822Z" fill="#DDDDDD" fill-opacity="0.1"/>
<path d="M742.083 361.822L785.5 289.461H698.667L742.083 361.822Z" fill="black" fill-opacity="0.1"/>
<path d="M828.917 361.822L785.5 434.183H872.333L828.917 361.822Z" fill="black" fill-opacity="0.1"/>
<path d="M828.917 361.822L872.333 289.461H785.5L828.917 361.822Z" fill="#444444" fill-opacity="0.1"/>
<path d="M915.75 361.822L872.333 434.183H959.167L915.75 361.822Z" fill="#AAAAAA" fill-opacity="0.1"/>
<path d="M915.75 361.822L959.167 289.461H872.333L915.75 361.822Z" fill="#666666" fill-opacity="0.1"/>
<path d="M1002.58 361.822L959.167 434.183H1046L1002.58 361.822Z" fill="#999999" fill-opacity="0.1"/>
<path d="M611.833 0.0166016L568.417 72.3777H655.25L611.833 0.0166016Z" fill="#999999" fill-opacity="0.1"/>
<path d="M698.667 0.0166016L655.25 72.3777H742.083L698.667 0.0166016Z" fill="#444444" fill-opacity="0.1"/>
<path d="M785.5 0.0166016L742.083 72.3777H828.917L785.5 0.0166016Z" fill="white" fill-opacity="0.1"/>
<path d="M959.167 0.0166016L915.75 72.3777H1002.58L959.167 0.0166016Z" fill="black" fill-opacity="0.1"/>
<path d="M525 144.739L481.583 217.1H568.417L525 144.739Z" fill="#222222" fill-opacity="0.1"/>
<path d="M525 144.739L568.417 72.3777H481.583L525 144.739Z" fill="white" fill-opacity="0.1"/>
<path d="M611.833 144.739L568.417 217.1H655.25L611.833 144.739Z" fill="white" fill-opacity="0.1"/>
<path d="M611.833 144.739L655.25 72.3777H568.417L611.833 144.739Z" fill="#666666" fill-opacity="0.1"/>
<path d="M698.667 144.739L655.25 217.1H742.083L698.667 144.739Z" fill="#222222" fill-opacity="0.1"/>
<path d="M698.667 144.739L742.083 72.3777H655.25L698.667 144.739Z" fill="white" fill-opacity="0.1"/>
<path d="M785.5 144.739L742.083 217.1H828.917L785.5 144.739Z" fill="#444444" fill-opacity="0.1"/>
<path d="M785.5 144.739L828.917 72.3777H742.083L785.5 144.739Z" fill="#222222" fill-opacity="0.1"/>
<path d="M872.333 144.739L828.917 217.1H915.75L872.333 144.739Z" fill="#AAAAAA" fill-opacity="0.1"/>
<path d="M872.333 144.739L915.75 72.3777H828.917L872.333 144.739Z" fill="#666666" fill-opacity="0.1"/>
<path d="M959.167 144.739L915.75 217.1H1002.58L959.167 144.739Z" fill="white" fill-opacity="0.1"/>
<path d="M959.167 144.739L1002.58 72.3777H915.75L959.167 144.739Z" fill="#999999" fill-opacity="0.1"/>
<path d="M525 289.461L481.583 361.822H568.417L525 289.461Z" fill="black" fill-opacity="0.1"/>
<path d="M525 289.461L568.417 217.1H481.583L525 289.461Z" fill="#666666" fill-opacity="0.1"/>
<path d="M611.833 289.461L568.417 361.822H655.25L611.833 289.461Z" fill="#AAAAAA" fill-opacity="0.1"/>
<path d="M611.833 289.461L655.25 217.1H568.417L611.833 289.461Z" fill="#444444" fill-opacity="0.1"/>
<path d="M698.667 289.461L655.25 361.822H742.083L698.667 289.461Z" fill="#444444" fill-opacity="0.1"/>
<path d="M698.667 289.461L742.083 217.1H655.25L698.667 289.461Z" fill="#999999" fill-opacity="0.1"/>
<path d="M785.5 289.461L828.917 217.1H742.083L785.5 289.461Z" fill="#666666" fill-opacity="0.1"/>
<path d="M872.333 289.461L828.917 361.822H915.75L872.333 289.461Z" fill="#222222" fill-opacity="0.1"/>
<path d="M959.167 289.461L915.75 361.822H1002.58L959.167 289.461Z" fill="white" fill-opacity="0.1"/>
<path d="M959.167 289.461L1002.58 217.1H915.75L959.167 289.461Z" fill="#222222" fill-opacity="0.1"/>
<path d="M525 434.183L568.417 361.822H481.583L525 434.183Z" fill="#DDDDDD" fill-opacity="0.1"/>
<path d="M611.833 434.183L655.25 361.822H568.417L611.833 434.183Z" fill="#444444" fill-opacity="0.1"/>
<path d="M698.667 434.183L742.083 361.822H655.25L698.667 434.183Z" fill="white" fill-opacity="0.1"/>
<path d="M785.5 434.183L828.917 361.822H742.083L785.5 434.183Z" fill="#AAAAAA" fill-opacity="0.1"/>
<path d="M872.333 434.183L915.75 361.822H828.917L872.333 434.183Z" fill="white" fill-opacity="0.1"/>
<path d="M959.167 434.183L1002.58 361.822H915.75L959.167 434.183Z" fill="#222222" fill-opacity="0.1"/>
<path d="M1046 144.739L1002.58 217.1H1089.42L1046 144.739Z" fill="#222222" fill-opacity="0.1"/>
<path d="M1046 144.739L1089.42 72.3777H1002.58L1046 144.739Z" fill="white" fill-opacity="0.1"/>
<path d="M1046 289.461L1002.58 361.822H1089.42L1046 289.461Z" fill="black" fill-opacity="0.1"/>
<path d="M1046 289.461L1089.42 217.1H1002.58L1046 289.461Z" fill="#666666" fill-opacity="0.1"/>
<path d="M1046 434.183L1089.42 361.822H1002.58L1046 434.183Z" fill="#DDDDDD" fill-opacity="0.1"/>
</g>
<g clip-path="url(#clip7)">
<path d="M525 0.0166016H4V434.183H525V0.0166016Z" fill="#033300"/>
<path d="M47.4167 72.3777L4 144.739H90.8333L47.4167 72.3777Z" fill="#444444" fill-opacity="0.1"/>
<path d="M47.4167 72.3777L90.8333 0.0166016H4L47.4167 72.3777Z" fill="black" fill-opacity="0.1"/>
<path d="M134.25 72.3777L177.667 0.0166016H90.8334L134.25 72.3777Z" fill="#AAAAAA" fill-opacity="0.1"/>
<path d="M221.083 72.3777L177.667 144.739H264.5L221.083 72.3777Z" fill="#DDDDDD" fill-opacity="0.1"/>
<path d="M221.083 72.3777L264.5 0.0166016H177.667L221.083 72.3777Z" fill="#999999" fill-opacity="0.1"/>
<path d="M307.917 72.3777L264.5 144.739H351.333L307.917 72.3777Z" fill="black" fill-opacity="0.1"/>
<path d="M307.917 72.3777L351.333 0.0166016H264.5L307.917 72.3777Z" fill="#DDDDDD" fill-opacity="0.1"/>
<path d="M394.75 72.3777L351.333 144.739H438.167L394.75 72.3777Z" fill="#444444" fill-opacity="0.1"/>
<path d="M394.75 72.3777L438.167 0.0166016H351.333L394.75 72.3777Z" fill="white" fill-opacity="0.1"/>
<path d="M481.583 72.3777L438.167 144.739H525L481.583 72.3777Z" fill="#DDDDDD" fill-opacity="0.1"/>
<path d="M481.583 72.3777L525 0.0166016H438.167L481.583 72.3777Z" fill="#444444" fill-opacity="0.1"/>
<path d="M47.4167 217.1L4 289.461H90.8333L47.4167 217.1Z" fill="#DDDDDD" fill-opacity="0.1"/>
<path d="M47.4167 217.1L90.8333 144.739H4L47.4167 217.1Z" fill="black" fill-opacity="0.1"/>
<path d="M134.25 217.1L90.8334 289.461H177.667L134.25 217.1Z" fill="#666666" fill-opacity="0.1"/>
<path d="M134.25 217.1L177.667 144.739H90.8334L134.25 217.1Z" fill="#AAAAAA" fill-opacity="0.1"/>
<path d="M221.083 217.1L177.667 289.461H264.5L221.083 217.1Z" fill="#DDDDDD" fill-opacity="0.1"/>
<path d="M221.083 217.1L264.5 144.739H177.667L221.083 217.1Z" fill="#999999" fill-opacity="0.1"/>
<path d="M307.917 217.1L264.5 289.461H351.333L307.917 217.1Z" fill="#999999" fill-opacity="0.1"/>
<path d="M307.917 217.1L351.333 144.739H264.5L307.917 217.1Z" fill="white" fill-opacity="0.1"/>
<path d="M394.75 217.1L351.333 289.461H438.167L394.75 217.1Z" fill="black" fill-opacity="0.1"/>
<path d="M394.75 217.1L438.167 144.739H351.333L394.75 217.1Z" fill="#DDDDDD" fill-opacity="0.1"/>
<path d="M481.583 217.1L438.167 289.461H525L481.583 217.1Z" fill="#AAAAAA" fill-opacity="0.1"/>
<path d="M481.583 217.1L525 144.739H438.167L481.583 217.1Z" fill="#444444" fill-opacity="0.1"/>
<path d="M47.4167 361.822L4 434.183H90.8333L47.4167 361.822Z" fill="#222222" fill-opacity="0.1"/>
<path d="M134.25 361.822L90.8334 434.183H177.667L134.25 361.822Z" fill="black" fill-opacity="0.1"/>
<path d="M134.25 361.822L177.667 289.461H90.8334L134.25 361.822Z" fill="#DDDDDD" fill-opacity="0.1"/>
<path d="M221.083 361.822L264.5 289.461H177.667L221.083 361.822Z" fill="black" fill-opacity="0.1"/>
<path d="M307.917 361.822L264.5 434.183H351.333L307.917 361.822Z" fill="black" fill-opacity="0.1"/>
<path d="M307.917 361.822L351.333 289.461H264.5L307.917 361.822Z" fill="#444444" fill-opacity="0.1"/>
<path d="M394.75 361.822L351.333 434.183H438.167L394.75 361.822Z" fill="#AAAAAA" fill-opacity="0.1"/>
<path d="M394.75 361.822L438.167 289.461H351.333L394.75 361.822Z" fill="#666666" fill-opacity="0.1"/>
<path d="M481.583 361.822L438.167 434.183H525L481.583 361.822Z" fill="#999999" fill-opacity="0.1"/>
<path d="M90.8334 0.0166016L47.4167 72.3777H134.25L90.8334 0.0166016Z" fill="#999999" fill-opacity="0.1"/>
<path d="M177.667 0.0166016L134.25 72.3777H221.083L177.667 0.0166016Z" fill="#444444" fill-opacity="0.1"/>
<path d="M264.5 0.0166016L221.083 72.3777H307.917L264.5 0.0166016Z" fill="white" fill-opacity="0.1"/>
<path d="M438.167 0.0166016L394.75 72.3777H481.583L438.167 0.0166016Z" fill="black" fill-opacity="0.1"/>
<path d="M4.00004 144.739L-39.4166 217.1H47.4167L4.00004 144.739Z" fill="#222222" fill-opacity="0.1"/>
<path d="M4.00004 144.739L47.4167 72.3777H-39.4166L4.00004 144.739Z" fill="white" fill-opacity="0.1"/>
<path d="M90.8334 144.739L47.4167 217.1H134.25L90.8334 144.739Z" fill="white" fill-opacity="0.1"/>
<path d="M90.8334 144.739L134.25 72.3777H47.4167L90.8334 144.739Z" fill="#666666" fill-opacity="0.1"/>
<path d="M177.667 144.739L134.25 217.1H221.083L177.667 144.739Z" fill="#222222" fill-opacity="0.1"/>
<path d="M177.667 144.739L221.083 72.3777H134.25L177.667 144.739Z" fill="white" fill-opacity="0.1"/>
<path d="M264.5 144.739L221.083 217.1H307.917L264.5 144.739Z" fill="#444444" fill-opacity="0.1"/>
<path d="M264.5 144.739L307.917 72.3777H221.083L264.5 144.739Z" fill="#222222" fill-opacity="0.1"/>
<path d="M351.333 144.739L307.917 217.1H394.75L351.333 144.739Z" fill="#AAAAAA" fill-opacity="0.1"/>
<path d="M351.333 144.739L394.75 72.3777H307.917L351.333 144.739Z" fill="#666666" fill-opacity="0.1"/>
<path d="M438.167 144.739L394.75 217.1H481.583L438.167 144.739Z" fill="white" fill-opacity="0.1"/>
<path d="M438.167 144.739L481.583 72.3777H394.75L438.167 144.739Z" fill="#999999" fill-opacity="0.1"/>
<path d="M4.00004 289.461L-39.4166 361.822H47.4167L4.00004 289.461Z" fill="black" fill-opacity="0.1"/>
<path d="M4.00004 289.461L47.4167 217.1H-39.4166L4.00004 289.461Z" fill="#666666" fill-opacity="0.1"/>
<path d="M90.8334 289.461L47.4167 361.822H134.25L90.8334 289.461Z" fill="#AAAAAA" fill-opacity="0.1"/>
<path d="M90.8334 289.461L134.25 217.1H47.4167L90.8334 289.461Z" fill="#444444" fill-opacity="0.1"/>
<path d="M177.667 289.461L134.25 361.822H221.083L177.667 289.461Z" fill="#444444" fill-opacity="0.1"/>
<path d="M177.667 289.461L221.083 217.1H134.25L177.667 289.461Z" fill="#999999" fill-opacity="0.1"/>
<path d="M264.5 289.461L307.917 217.1H221.083L264.5 289.461Z" fill="#666666" fill-opacity="0.1"/>
<path d="M351.333 289.461L307.917 361.822H394.75L351.333 289.461Z" fill="#222222" fill-opacity="0.1"/>
<path d="M438.167 289.461L394.75 361.822H481.583L438.167 289.461Z" fill="white" fill-opacity="0.1"/>
<path d="M438.167 289.461L481.583 217.1H394.75L438.167 289.461Z" fill="#222222" fill-opacity="0.1"/>
<path d="M4.00004 434.183L47.4167 361.822H-39.4166L4.00004 434.183Z" fill="#DDDDDD" fill-opacity="0.1"/>
<path d="M90.8334 434.183L134.25 361.822H47.4167L90.8334 434.183Z" fill="#444444" fill-opacity="0.1"/>
<path d="M177.667 434.183L221.083 361.822H134.25L177.667 434.183Z" fill="white" fill-opacity="0.1"/>
<path d="M264.5 434.183L307.917 361.822H221.083L264.5 434.183Z" fill="#AAAAAA" fill-opacity="0.1"/>
<path d="M351.333 434.183L394.75 361.822H307.917L351.333 434.183Z" fill="white" fill-opacity="0.1"/>
<path d="M438.167 434.183L481.583 361.822H394.75L438.167 434.183Z" fill="#222222" fill-opacity="0.1"/>
<path d="M525 144.739L481.583 217.1H568.417L525 144.739Z" fill="#222222" fill-opacity="0.1"/>
<path d="M525 144.739L568.417 72.3777H481.583L525 144.739Z" fill="white" fill-opacity="0.1"/>
<path d="M525 289.461L481.583 361.822H568.417L525 289.461Z" fill="black" fill-opacity="0.1"/>
<path d="M525 289.461L568.417 217.1H481.583L525 289.461Z" fill="#666666" fill-opacity="0.1"/>
<path d="M525 434.183L568.417 361.822H481.583L525 434.183Z" fill="#DDDDDD" fill-opacity="0.1"/>
</g>
<g clip-path="url(#clip8)">
<path d="M1046 434.017H525V868.183H1046V434.017Z" fill="#033300"/>
<path d="M568.417 506.378L525 578.739H611.833L568.417 506.378Z" fill="#444444" fill-opacity="0.1"/>
<path d="M568.417 506.378L611.833 434.017H525L568.417 506.378Z" fill="black" fill-opacity="0.1"/>
<path d="M655.25 506.378L698.667 434.017H611.833L655.25 506.378Z" fill="#AAAAAA" fill-opacity="0.1"/>
<path d="M742.083 506.378L698.667 578.739H785.5L742.083 506.378Z" fill="#DDDDDD" fill-opacity="0.1"/>
<path d="M742.083 506.378L785.5 434.017H698.667L742.083 506.378Z" fill="#999999" fill-opacity="0.1"/>
<path d="M828.917 506.378L785.5 578.739H872.333L828.917 506.378Z" fill="black" fill-opacity="0.1"/>
<path d="M828.917 506.378L872.333 434.017H785.5L828.917 506.378Z" fill="#DDDDDD" fill-opacity="0.1"/>
<path d="M915.75 506.378L872.333 578.739H959.167L915.75 506.378Z" fill="#444444" fill-opacity="0.1"/>
<path d="M915.75 506.378L959.167 434.017H872.333L915.75 506.378Z" fill="white" fill-opacity="0.1"/>
<path d="M1002.58 506.378L959.167 578.739H1046L1002.58 506.378Z" fill="#DDDDDD" fill-opacity="0.1"/>
<path d="M1002.58 506.378L1046 434.017H959.167L1002.58 506.378Z" fill="#444444" fill-opacity="0.1"/>
<path d="M568.417 651.1L525 723.461H611.833L568.417 651.1Z" fill="#DDDDDD" fill-opacity="0.1"/>
<path d="M568.417 651.1L611.833 578.739H525L568.417 651.1Z" fill="black" fill-opacity="0.1"/>
<path d="M655.25 651.1L611.833 723.461H698.667L655.25 651.1Z" fill="#666666" fill-opacity="0.1"/>
<path d="M655.25 651.1L698.667 578.739H611.833L655.25 651.1Z" fill="#AAAAAA" fill-opacity="0.1"/>
<path d="M742.083 651.1L698.667 723.461H785.5L742.083 651.1Z" fill="#DDDDDD" fill-opacity="0.1"/>
<path d="M742.083 651.1L785.5 578.739H698.667L742.083 651.1Z" fill="#999999" fill-opacity="0.1"/>
<path d="M828.917 651.1L785.5 723.461H872.333L828.917 651.1Z" fill="#999999" fill-opacity="0.1"/>
<path d="M828.917 651.1L872.333 578.739H785.5L828.917 651.1Z" fill="white" fill-opacity="0.1"/>
<path d="M915.75 651.1L872.333 723.461H959.167L915.75 651.1Z" fill="black" fill-opacity="0.1"/>
<path d="M915.75 651.1L959.167 578.739H872.333L915.75 651.1Z" fill="#DDDDDD" fill-opacity="0.1"/>
<path d="M1002.58 651.1L959.167 723.461H1046L1002.58 651.1Z" fill="#AAAAAA" fill-opacity="0.1"/>
<path d="M1002.58 651.1L1046 578.739H959.167L1002.58 651.1Z" fill="#444444" fill-opacity="0.1"/>
<path d="M568.417 795.822L525 868.183H611.833L568.417 795.822Z" fill="#222222" fill-opacity="0.1"/>
<path d="M655.25 795.822L611.833 868.183H698.667L655.25 795.822Z" fill="black" fill-opacity="0.1"/>
<path d="M655.25 795.822L698.667 723.461H611.833L655.25 795.822Z" fill="#DDDDDD" fill-opacity="0.1"/>
<path d="M742.083 795.822L785.5 723.461H698.667L742.083 795.822Z" fill="black" fill-opacity="0.1"/>
<path d="M828.917 795.822L785.5 868.183H872.333L828.917 795.822Z" fill="black" fill-opacity="0.1"/>
<path d="M828.917 795.822L872.333 723.461H785.5L828.917 795.822Z" fill="#444444" fill-opacity="0.1"/>
<path d="M915.75 795.822L872.333 868.183H959.167L915.75 795.822Z" fill="#AAAAAA" fill-opacity="0.1"/>
<path d="M915.75 795.822L959.167 723.461H872.333L915.75 795.822Z" fill="#666666" fill-opacity="0.1"/>
<path d="M1002.58 795.822L959.167 868.183H1046L1002.58 795.822Z" fill="#999999" fill-opacity="0.1"/>
<path d="M611.833 434.017L568.417 506.378H655.25L611.833 434.017Z" fill="#999999" fill-opacity="0.1"/>
<path d="M698.667 434.017L655.25 506.378H742.083L698.667 434.017Z" fill="#444444" fill-opacity="0.1"/>
<path d="M785.5 434.017L742.083 506.378H828.917L785.5 434.017Z" fill="white" fill-opacity="0.1"/>
<path d="M959.167 434.017L915.75 506.378H1002.58L959.167 434.017Z" fill="black" fill-opacity="0.1"/>
<path d="M525 578.739L481.583 651.1H568.417L525 578.739Z" fill="#222222" fill-opacity="0.1"/>
<path d="M525 578.739L568.417 506.378H481.583L525 578.739Z" fill="white" fill-opacity="0.1"/>
<path d="M611.833 578.739L568.417 651.1H655.25L611.833 578.739Z" fill="white" fill-opacity="0.1"/>
<path d="M611.833 578.739L655.25 506.378H568.417L611.833 578.739Z" fill="#666666" fill-opacity="0.1"/>
<path d="M698.667 578.739L655.25 651.1H742.083L698.667 578.739Z" fill="#222222" fill-opacity="0.1"/>
<path d="M698.667 578.739L742.083 506.378H655.25L698.667 578.739Z" fill="white" fill-opacity="0.1"/>
<path d="M785.5 578.739L742.083 651.1H828.917L785.5 578.739Z" fill="#444444" fill-opacity="0.1"/>
<path d="M785.5 578.739L828.917 506.378H742.083L785.5 578.739Z" fill="#222222" fill-opacity="0.1"/>
<path d="M872.333 578.739L828.917 651.1H915.75L872.333 578.739Z" fill="#AAAAAA" fill-opacity="0.1"/>
<path d="M872.333 578.739L915.75 506.378H828.917L872.333 578.739Z" fill="#666666" fill-opacity="0.1"/>
<path d="M959.167 578.739L915.75 651.1H1002.58L959.167 578.739Z" fill="white" fill-opacity="0.1"/>
<path d="M959.167 578.739L1002.58 506.378H915.75L959.167 578.739Z" fill="#999999" fill-opacity="0.1"/>
<path d="M525 723.461L481.583 795.822H568.417L525 723.461Z" fill="black" fill-opacity="0.1"/>
<path d="M525 723.461L568.417 651.1H481.583L525 723.461Z" fill="#666666" fill-opacity="0.1"/>
<path d="M611.833 723.461L568.417 795.822H655.25L611.833 723.461Z" fill="#AAAAAA" fill-opacity="0.1"/>
<path d="M611.833 723.461L655.25 651.1H568.417L611.833 723.461Z" fill="#444444" fill-opacity="0.1"/>
<path d="M698.667 723.461L655.25 795.822H742.083L698.667 723.461Z" fill="#444444" fill-opacity="0.1"/>
<path d="M698.667 723.461L742.083 651.1H655.25L698.667 723.461Z" fill="#999999" fill-opacity="0.1"/>
<path d="M785.5 723.461L828.917 651.1H742.083L785.5 723.461Z" fill="#666666" fill-opacity="0.1"/>
<path d="M872.333 723.461L828.917 795.822H915.75L872.333 723.461Z" fill="#222222" fill-opacity="0.1"/>
<path d="M959.167 723.461L915.75 795.822H1002.58L959.167 723.461Z" fill="white" fill-opacity="0.1"/>
<path d="M959.167 723.461L1002.58 651.1H915.75L959.167 723.461Z" fill="#222222" fill-opacity="0.1"/>
<path d="M525 868.183L568.417 795.822H481.583L525 868.183Z" fill="#DDDDDD" fill-opacity="0.1"/>
<path d="M611.833 868.183L655.25 795.822H568.417L611.833 868.183Z" fill="#444444" fill-opacity="0.1"/>
<path d="M698.667 868.183L742.083 795.822H655.25L698.667 868.183Z" fill="white" fill-opacity="0.1"/>
<path d="M785.5 868.183L828.917 795.822H742.083L785.5 868.183Z" fill="#AAAAAA" fill-opacity="0.1"/>
<path d="M872.333 868.183L915.75 795.822H828.917L872.333 868.183Z" fill="white" fill-opacity="0.1"/>
<path d="M959.167 868.183L1002.58 795.822H915.75L959.167 868.183Z" fill="#222222" fill-opacity="0.1"/>
<path d="M1046 578.739L1002.58 651.1H1089.42L1046 578.739Z" fill="#222222" fill-opacity="0.1"/>
<path d="M1046 578.739L1089.42 506.378H1002.58L1046 578.739Z" fill="white" fill-opacity="0.1"/>
<path d="M1046 723.461L1002.58 795.822H1089.42L1046 723.461Z" fill="black" fill-opacity="0.1"/>
<path d="M1046 723.461L1089.42 651.1H1002.58L1046 723.461Z" fill="#666666" fill-opacity="0.1"/>
<path d="M1046 868.183L1089.42 795.822H1002.58L1046 868.183Z" fill="#DDDDDD" fill-opacity="0.1"/>
</g>
<g clip-path="url(#clip9)">
<path d="M1046 434.017H525V868.183H1046V434.017Z" fill="#033300"/>
<path d="M568.417 506.378L525 578.739H611.833L568.417 506.378Z" fill="#444444" fill-opacity="0.1"/>
<path d="M568.417 506.378L611.833 434.017H525L568.417 506.378Z" fill="black" fill-opacity="0.1"/>
<path d="M655.25 506.378L698.667 434.017H611.833L655.25 506.378Z" fill="#AAAAAA" fill-opacity="0.1"/>
<path d="M742.083 506.378L698.667 578.739H785.5L742.083 506.378Z" fill="#DDDDDD" fill-opacity="0.1"/>
<path d="M742.083 506.378L785.5 434.017H698.667L742.083 506.378Z" fill="#999999" fill-opacity="0.1"/>
<path d="M828.917 506.378L785.5 578.739H872.333L828.917 506.378Z" fill="black" fill-opacity="0.1"/>
<path d="M828.917 506.378L872.333 434.017H785.5L828.917 506.378Z" fill="#DDDDDD" fill-opacity="0.1"/>
<path d="M915.75 506.378L872.333 578.739H959.167L915.75 506.378Z" fill="#444444" fill-opacity="0.1"/>
<path d="M915.75 506.378L959.167 434.017H872.333L915.75 506.378Z" fill="white" fill-opacity="0.1"/>
<path d="M1002.58 506.378L959.167 578.739H1046L1002.58 506.378Z" fill="#DDDDDD" fill-opacity="0.1"/>
<path d="M1002.58 506.378L1046 434.017H959.167L1002.58 506.378Z" fill="#444444" fill-opacity="0.1"/>
<path d="M568.417 651.1L525 723.461H611.833L568.417 651.1Z" fill="#DDDDDD" fill-opacity="0.1"/>
<path d="M568.417 651.1L611.833 578.739H525L568.417 651.1Z" fill="black" fill-opacity="0.1"/>
<path d="M655.25 651.1L611.833 723.461H698.667L655.25 651.1Z" fill="#666666" fill-opacity="0.1"/>
<path d="M655.25 651.1L698.667 578.739H611.833L655.25 651.1Z" fill="#AAAAAA" fill-opacity="0.1"/>
<path d="M742.083 651.1L698.667 723.461H785.5L742.083 651.1Z" fill="#DDDDDD" fill-opacity="0.1"/>
<path d="M742.083 651.1L785.5 578.739H698.667L742.083 651.1Z" fill="#999999" fill-opacity="0.1"/>
<path d="M828.917 651.1L785.5 723.461H872.333L828.917 651.1Z" fill="#999999" fill-opacity="0.1"/>
<path d="M828.917 651.1L872.333 578.739H785.5L828.917 651.1Z" fill="white" fill-opacity="0.1"/>
<path d="M915.75 651.1L872.333 723.461H959.167L915.75 651.1Z" fill="black" fill-opacity="0.1"/>
<path d="M915.75 651.1L959.167 578.739H872.333L915.75 651.1Z" fill="#DDDDDD" fill-opacity="0.1"/>
<path d="M1002.58 651.1L959.167 723.461H1046L1002.58 651.1Z" fill="#AAAAAA" fill-opacity="0.1"/>
<path d="M1002.58 651.1L1046 578.739H959.167L1002.58 651.1Z" fill="#444444" fill-opacity="0.1"/>
<path d="M568.417 795.822L525 868.183H611.833L568.417 795.822Z" fill="#222222" fill-opacity="0.1"/>
<path d="M655.25 795.822L611.833 868.183H698.667L655.25 795.822Z" fill="black" fill-opacity="0.1"/>
<path d="M655.25 795.822L698.667 723.461H611.833L655.25 795.822Z" fill="#DDDDDD" fill-opacity="0.1"/>
<path d="M742.083 795.822L785.5 723.461H698.667L742.083 795.822Z" fill="black" fill-opacity="0.1"/>
<path d="M828.917 795.822L785.5 868.183H872.333L828.917 795.822Z" fill="black" fill-opacity="0.1"/>
<path d="M828.917 795.822L872.333 723.461H785.5L828.917 795.822Z" fill="#444444" fill-opacity="0.1"/>
<path d="M915.75 795.822L872.333 868.183H959.167L915.75 795.822Z" fill="#AAAAAA" fill-opacity="0.1"/>
<path d="M915.75 795.822L959.167 723.461H872.333L915.75 795.822Z" fill="#666666" fill-opacity="0.1"/>
<path d="M1002.58 795.822L959.167 868.183H1046L1002.58 795.822Z" fill="#999999" fill-opacity="0.1"/>
<path d="M611.833 434.017L568.417 506.378H655.25L611.833 434.017Z" fill="#999999" fill-opacity="0.1"/>
<path d="M698.667 434.017L655.25 506.378H742.083L698.667 434.017Z" fill="#444444" fill-opacity="0.1"/>
<path d="M785.5 434.017L742.083 506.378H828.917L785.5 434.017Z" fill="white" fill-opacity="0.1"/>
<path d="M959.167 434.017L915.75 506.378H1002.58L959.167 434.017Z" fill="black" fill-opacity="0.1"/>
<path d="M525 578.739L481.583 651.1H568.417L525 578.739Z" fill="#222222" fill-opacity="0.1"/>
<path d="M525 578.739L568.417 506.378H481.583L525 578.739Z" fill="white" fill-opacity="0.1"/>
<path d="M611.833 578.739L568.417 651.1H655.25L611.833 578.739Z" fill="white" fill-opacity="0.1"/>
<path d="M611.833 578.739L655.25 506.378H568.417L611.833 578.739Z" fill="#666666" fill-opacity="0.1"/>
<path d="M698.667 578.739L655.25 651.1H742.083L698.667 578.739Z" fill="#222222" fill-opacity="0.1"/>
<path d="M698.667 578.739L742.083 506.378H655.25L698.667 578.739Z" fill="white" fill-opacity="0.1"/>
<path d="M785.5 578.739L742.083 651.1H828.917L785.5 578.739Z" fill="#444444" fill-opacity="0.1"/>
<path d="M785.5 578.739L828.917 506.378H742.083L785.5 578.739Z" fill="#222222" fill-opacity="0.1"/>
<path d="M872.333 578.739L828.917 651.1H915.75L872.333 578.739Z" fill="#AAAAAA" fill-opacity="0.1"/>
<path d="M872.333 578.739L915.75 506.378H828.917L872.333 578.739Z" fill="#666666" fill-opacity="0.1"/>
<path d="M959.167 578.739L915.75 651.1H1002.58L959.167 578.739Z" fill="white" fill-opacity="0.1"/>
<path d="M959.167 578.739L1002.58 506.378H915.75L959.167 578.739Z" fill="#999999" fill-opacity="0.1"/>
<path d="M525 723.461L481.583 795.822H568.417L525 723.461Z" fill="black" fill-opacity="0.1"/>
<path d="M525 723.461L568.417 651.1H481.583L525 723.461Z" fill="#666666" fill-opacity="0.1"/>
<path d="M611.833 723.461L568.417 795.822H655.25L611.833 723.461Z" fill="#AAAAAA" fill-opacity="0.1"/>
<path d="M611.833 723.461L655.25 651.1H568.417L611.833 723.461Z" fill="#444444" fill-opacity="0.1"/>
<path d="M698.667 723.461L655.25 795.822H742.083L698.667 723.461Z" fill="#444444" fill-opacity="0.1"/>
<path d="M698.667 723.461L742.083 651.1H655.25L698.667 723.461Z" fill="#999999" fill-opacity="0.1"/>
<path d="M785.5 723.461L828.917 651.1H742.083L785.5 723.461Z" fill="#666666" fill-opacity="0.1"/>
<path d="M872.333 723.461L828.917 795.822H915.75L872.333 723.461Z" fill="#222222" fill-opacity="0.1"/>
<path d="M959.167 723.461L915.75 795.822H1002.58L959.167 723.461Z" fill="white" fill-opacity="0.1"/>
<path d="M959.167 723.461L1002.58 651.1H915.75L959.167 723.461Z" fill="#222222" fill-opacity="0.1"/>
<path d="M525 868.183L568.417 795.822H481.583L525 868.183Z" fill="#DDDDDD" fill-opacity="0.1"/>
<path d="M611.833 868.183L655.25 795.822H568.417L611.833 868.183Z" fill="#444444" fill-opacity="0.1"/>
<path d="M698.667 868.183L742.083 795.822H655.25L698.667 868.183Z" fill="white" fill-opacity="0.1"/>
<path d="M785.5 868.183L828.917 795.822H742.083L785.5 868.183Z" fill="#AAAAAA" fill-opacity="0.1"/>
<path d="M872.333 868.183L915.75 795.822H828.917L872.333 868.183Z" fill="white" fill-opacity="0.1"/>
<path d="M959.167 868.183L1002.58 795.822H915.75L959.167 868.183Z" fill="#222222" fill-opacity="0.1"/>
<path d="M1046 578.739L1002.58 651.1H1089.42L1046 578.739Z" fill="#222222" fill-opacity="0.1"/>
<path d="M1046 578.739L1089.42 506.378H1002.58L1046 578.739Z" fill="white" fill-opacity="0.1"/>
<path d="M1046 723.461L1002.58 795.822H1089.42L1046 723.461Z" fill="black" fill-opacity="0.1"/>
<path d="M1046 723.461L1089.42 651.1H1002.58L1046 723.461Z" fill="#666666" fill-opacity="0.1"/>
<path d="M1046 868.183L1089.42 795.822H1002.58L1046 868.183Z" fill="#DDDDDD" fill-opacity="0.1"/>
</g>
<g clip-path="url(#clip10)">
<path d="M2088 0.0166016H1567V434.183H2088V0.0166016Z" fill="#033300"/>
<path d="M1610.42 72.3777L1567 144.739H1653.83L1610.42 72.3777Z" fill="#444444" fill-opacity="0.1"/>
<path d="M1610.42 72.3777L1653.83 0.0166016H1567L1610.42 72.3777Z" fill="black" fill-opacity="0.1"/>
<path d="M1697.25 72.3777L1740.67 0.0166016H1653.83L1697.25 72.3777Z" fill="#AAAAAA" fill-opacity="0.1"/>
<path d="M1784.08 72.3777L1740.67 144.739H1827.5L1784.08 72.3777Z" fill="#DDDDDD" fill-opacity="0.1"/>
<path d="M1784.08 72.3777L1827.5 0.0166016H1740.67L1784.08 72.3777Z" fill="#999999" fill-opacity="0.1"/>
<path d="M1610.42 217.1L1567 289.461H1653.83L1610.42 217.1Z" fill="#DDDDDD" fill-opacity="0.1"/>
<path d="M1610.42 217.1L1653.83 144.739H1567L1610.42 217.1Z" fill="black" fill-opacity="0.1"/>
<path d="M1697.25 217.1L1653.83 289.461H1740.67L1697.25 217.1Z" fill="#666666" fill-opacity="0.1"/>
<path d="M1697.25 217.1L1740.67 144.739H1653.83L1697.25 217.1Z" fill="#AAAAAA" fill-opacity="0.1"/>
<path d="M1784.08 217.1L1740.67 289.461H1827.5L1784.08 217.1Z" fill="#DDDDDD" fill-opacity="0.1"/>
<path d="M1784.08 217.1L1827.5 144.739H1740.67L1784.08 217.1Z" fill="#999999" fill-opacity="0.1"/>
<path d="M1610.42 361.822L1567 434.183H1653.83L1610.42 361.822Z" fill="#222222" fill-opacity="0.1"/>
<path d="M1697.25 361.822L1653.83 434.183H1740.67L1697.25 361.822Z" fill="black" fill-opacity="0.1"/>
<path d="M1697.25 361.822L1740.67 289.461H1653.83L1697.25 361.822Z" fill="#DDDDDD" fill-opacity="0.1"/>
<path d="M1784.08 361.822L1827.5 289.461H1740.67L1784.08 361.822Z" fill="black" fill-opacity="0.1"/>
<path d="M1653.83 0.0166016L1610.42 72.3777H1697.25L1653.83 0.0166016Z" fill="#999999" fill-opacity="0.1"/>
<path d="M1740.67 0.0166016L1697.25 72.3777H1784.08L1740.67 0.0166016Z" fill="#444444" fill-opacity="0.1"/>
<path d="M1567 144.739L1523.58 217.1H1610.42L1567 144.739Z" fill="#222222" fill-opacity="0.1"/>
<path d="M1567 144.739L1610.42 72.3777H1523.58L1567 144.739Z" fill="white" fill-opacity="0.1"/>
<path d="M1653.83 144.739L1610.42 217.1H1697.25L1653.83 144.739Z" fill="white" fill-opacity="0.1"/>
<path d="M1653.83 144.739L1697.25 72.3777H1610.42L1653.83 144.739Z" fill="#666666" fill-opacity="0.1"/>
<path d="M1740.67 144.739L1697.25 217.1H1784.08L1740.67 144.739Z" fill="#222222" fill-opacity="0.1"/>
<path d="M1740.67 144.739L1784.08 72.3777H1697.25L1740.67 144.739Z" fill="white" fill-opacity="0.1"/>
<path d="M1567 289.461L1523.58 361.822H1610.42L1567 289.461Z" fill="black" fill-opacity="0.1"/>
<path d="M1567 289.461L1610.42 217.1H1523.58L1567 289.461Z" fill="#666666" fill-opacity="0.1"/>
<path d="M1653.83 289.461L1610.42 361.822H1697.25L1653.83 289.461Z" fill="#AAAAAA" fill-opacity="0.1"/>
<path d="M1653.83 289.461L1697.25 217.1H1610.42L1653.83 289.461Z" fill="#444444" fill-opacity="0.1"/>
<path d="M1740.67 289.461L1697.25 361.822H1784.08L1740.67 289.461Z" fill="#444444" fill-opacity="0.1"/>
<path d="M1740.67 289.461L1784.08 217.1H1697.25L1740.67 289.461Z" fill="#999999" fill-opacity="0.1"/>
<path d="M1567 434.183L1610.42 361.822H1523.58L1567 434.183Z" fill="#DDDDDD" fill-opacity="0.1"/>
<path d="M1653.83 434.183L1697.25 361.822H1610.42L1653.83 434.183Z" fill="#444444" fill-opacity="0.1"/>
<path d="M1740.67 434.183L1784.08 361.822H1697.25L1740.67 434.183Z" fill="white" fill-opacity="0.1"/>
</g>
<g clip-path="url(#clip11)">
<path d="M2088 434.017H1567V868.183H2088V434.017Z" fill="#033300"/>
<path d="M1610.42 506.378L1567 578.739H1653.83L1610.42 506.378Z" fill="#444444" fill-opacity="0.1"/>
<path d="M1610.42 506.378L1653.83 434.017H1567L1610.42 506.378Z" fill="black" fill-opacity="0.1"/>
<path d="M1697.25 506.378L1740.67 434.017H1653.83L1697.25 506.378Z" fill="#AAAAAA" fill-opacity="0.1"/>
<path d="M1784.08 506.378L1740.67 578.739H1827.5L1784.08 506.378Z" fill="#DDDDDD" fill-opacity="0.1"/>
<path d="M1784.08 506.378L1827.5 434.017H1740.67L1784.08 506.378Z" fill="#999999" fill-opacity="0.1"/>
<path d="M1610.42 651.1L1567 723.461H1653.83L1610.42 651.1Z" fill="#DDDDDD" fill-opacity="0.1"/>
<path d="M1610.42 651.1L1653.83 578.739H1567L1610.42 651.1Z" fill="black" fill-opacity="0.1"/>
<path d="M1697.25 651.1L1653.83 723.461H1740.67L1697.25 651.1Z" fill="#666666" fill-opacity="0.1"/>
<path d="M1697.25 651.1L1740.67 578.739H1653.83L1697.25 651.1Z" fill="#AAAAAA" fill-opacity="0.1"/>
<path d="M1784.08 651.1L1740.67 723.461H1827.5L1784.08 651.1Z" fill="#DDDDDD" fill-opacity="0.1"/>
<path d="M1784.08 651.1L1827.5 578.739H1740.67L1784.08 651.1Z" fill="#999999" fill-opacity="0.1"/>
<path d="M1610.42 795.822L1567 868.183H1653.83L1610.42 795.822Z" fill="#222222" fill-opacity="0.1"/>
<path d="M1697.25 795.822L1653.83 868.183H1740.67L1697.25 795.822Z" fill="black" fill-opacity="0.1"/>
<path d="M1697.25 795.822L1740.67 723.461H1653.83L1697.25 795.822Z" fill="#DDDDDD" fill-opacity="0.1"/>
<path d="M1784.08 795.822L1827.5 723.461H1740.67L1784.08 795.822Z" fill="black" fill-opacity="0.1"/>
<path d="M1653.83 434.017L1610.42 506.378H1697.25L1653.83 434.017Z" fill="#999999" fill-opacity="0.1"/>
<path d="M1740.67 434.017L1697.25 506.378H1784.08L1740.67 434.017Z" fill="#444444" fill-opacity="0.1"/>
<path d="M1567 578.739L1523.58 651.1H1610.42L1567 578.739Z" fill="#222222" fill-opacity="0.1"/>
<path d="M1567 578.739L1610.42 506.378H1523.58L1567 578.739Z" fill="white" fill-opacity="0.1"/>
<path d="M1653.83 578.739L1610.42 651.1H1697.25L1653.83 578.739Z" fill="white" fill-opacity="0.1"/>
<path d="M1653.83 578.739L1697.25 506.378H1610.42L1653.83 578.739Z" fill="#666666" fill-opacity="0.1"/>
<path d="M1740.67 578.739L1697.25 651.1H1784.08L1740.67 578.739Z" fill="#222222" fill-opacity="0.1"/>
<path d="M1740.67 578.739L1784.08 506.378H1697.25L1740.67 578.739Z" fill="white" fill-opacity="0.1"/>
<path d="M1567 723.461L1523.58 795.822H1610.42L1567 723.461Z" fill="black" fill-opacity="0.1"/>
<path d="M1567 723.461L1610.42 651.1H1523.58L1567 723.461Z" fill="#666666" fill-opacity="0.1"/>
<path d="M1653.83 723.461L1610.42 795.822H1697.25L1653.83 723.461Z" fill="#AAAAAA" fill-opacity="0.1"/>
<path d="M1653.83 723.461L1697.25 651.1H1610.42L1653.83 723.461Z" fill="#444444" fill-opacity="0.1"/>
<path d="M1740.67 723.461L1697.25 795.822H1784.08L1740.67 723.461Z" fill="#444444" fill-opacity="0.1"/>
<path d="M1740.67 723.461L1784.08 651.1H1697.25L1740.67 723.461Z" fill="#999999" fill-opacity="0.1"/>
<path d="M1567 868.183L1610.42 795.822H1523.58L1567 868.183Z" fill="#DDDDDD" fill-opacity="0.1"/>
<path d="M1653.83 868.183L1697.25 795.822H1610.42L1653.83 868.183Z" fill="#444444" fill-opacity="0.1"/>
<path d="M1740.67 868.183L1784.08 795.822H1697.25L1740.67 868.183Z" fill="white" fill-opacity="0.1"/>
</g>
<g clip-path="url(#clip12)">
<path d="M525 864.017H4V1298.18H525V864.017Z" fill="#033300"/>
<path d="M47.4167 936.378L4 1008.74H90.8333L47.4167 936.378Z" fill="#444444" fill-opacity="0.1"/>
<path d="M47.4167 936.378L90.8333 864.017H4L47.4167 936.378Z" fill="black" fill-opacity="0.1"/>
<path d="M134.25 936.378L177.667 864.017H90.8334L134.25 936.378Z" fill="#AAAAAA" fill-opacity="0.1"/>
<path d="M221.083 936.378L177.667 1008.74H264.5L221.083 936.378Z" fill="#DDDDDD" fill-opacity="0.1"/>
<path d="M221.083 936.378L264.5 864.017H177.667L221.083 936.378Z" fill="#999999" fill-opacity="0.1"/>
<path d="M307.917 936.378L264.5 1008.74H351.333L307.917 936.378Z" fill="black" fill-opacity="0.1"/>
<path d="M307.917 936.378L351.333 864.017H264.5L307.917 936.378Z" fill="#DDDDDD" fill-opacity="0.1"/>
<path d="M394.75 936.378L351.333 1008.74H438.167L394.75 936.378Z" fill="#444444" fill-opacity="0.1"/>
<path d="M394.75 936.378L438.167 864.017H351.333L394.75 936.378Z" fill="white" fill-opacity="0.1"/>
<path d="M481.583 936.378L438.167 1008.74H525L481.583 936.378Z" fill="#DDDDDD" fill-opacity="0.1"/>
<path d="M481.583 936.378L525 864.017H438.167L481.583 936.378Z" fill="#444444" fill-opacity="0.1"/>
<path d="M47.4167 1081.1L90.8333 1008.74H4L47.4167 1081.1Z" fill="black" fill-opacity="0.1"/>
<path d="M134.25 1081.1L177.667 1008.74H90.8334L134.25 1081.1Z" fill="#AAAAAA" fill-opacity="0.1"/>
<path d="M221.083 1081.1L264.5 1008.74H177.667L221.083 1081.1Z" fill="#999999" fill-opacity="0.1"/>
<path d="M307.917 1081.1L351.333 1008.74H264.5L307.917 1081.1Z" fill="white" fill-opacity="0.1"/>
<path d="M394.75 1081.1L438.167 1008.74H351.333L394.75 1081.1Z" fill="#DDDDDD" fill-opacity="0.1"/>
<path d="M481.583 1081.1L525 1008.74H438.167L481.583 1081.1Z" fill="#444444" fill-opacity="0.1"/>
<path d="M90.8334 864.017L47.4167 936.378H134.25L90.8334 864.017Z" fill="#999999" fill-opacity="0.1"/>
<path d="M177.667 864.017L134.25 936.378H221.083L177.667 864.017Z" fill="#444444" fill-opacity="0.1"/>
<path d="M264.5 864.017L221.083 936.378H307.917L264.5 864.017Z" fill="white" fill-opacity="0.1"/>
<path d="M438.167 864.017L394.75 936.378H481.583L438.167 864.017Z" fill="black" fill-opacity="0.1"/>
<path d="M4.00004 1008.74L-39.4166 1081.1H47.4167L4.00004 1008.74Z" fill="#222222" fill-opacity="0.1"/>
<path d="M4.00004 1008.74L47.4167 936.378H-39.4166L4.00004 1008.74Z" fill="white" fill-opacity="0.1"/>
<path d="M90.8334 1008.74L47.4167 1081.1H134.25L90.8334 1008.74Z" fill="white" fill-opacity="0.1"/>
<path d="M90.8334 1008.74L134.25 936.378H47.4167L90.8334 1008.74Z" fill="#666666" fill-opacity="0.1"/>
<path d="M177.667 1008.74L134.25 1081.1H221.083L177.667 1008.74Z" fill="#222222" fill-opacity="0.1"/>
<path d="M177.667 1008.74L221.083 936.378H134.25L177.667 1008.74Z" fill="white" fill-opacity="0.1"/>
<path d="M264.5 1008.74L221.083 1081.1H307.917L264.5 1008.74Z" fill="#444444" fill-opacity="0.1"/>
<path d="M264.5 1008.74L307.917 936.378H221.083L264.5 1008.74Z" fill="#222222" fill-opacity="0.1"/>
<path d="M351.333 1008.74L307.917 1081.1H394.75L351.333 1008.74Z" fill="#AAAAAA" fill-opacity="0.1"/>
<path d="M351.333 1008.74L394.75 936.378H307.917L351.333 1008.74Z" fill="#666666" fill-opacity="0.1"/>
<path d="M438.167 1008.74L394.75 1081.1H481.583L438.167 1008.74Z" fill="white" fill-opacity="0.1"/>
<path d="M438.167 1008.74L481.583 936.378H394.75L438.167 1008.74Z" fill="#999999" fill-opacity="0.1"/>
<path d="M525 1008.74L481.583 1081.1H568.417L525 1008.74Z" fill="#222222" fill-opacity="0.1"/>
<path d="M525 1008.74L568.417 936.378H481.583L525 1008.74Z" fill="white" fill-opacity="0.1"/>
</g>
<g clip-path="url(#clip13)">
<path d="M525 864.017H4V1298.18H525V864.017Z" fill="#033300"/>
<path d="M47.4167 936.378L4 1008.74H90.8333L47.4167 936.378Z" fill="#444444" fill-opacity="0.1"/>
<path d="M47.4167 936.378L90.8333 864.017H4L47.4167 936.378Z" fill="black" fill-opacity="0.1"/>
<path d="M134.25 936.378L177.667 864.017H90.8334L134.25 936.378Z" fill="#AAAAAA" fill-opacity="0.1"/>
<path d="M221.083 936.378L177.667 1008.74H264.5L221.083 936.378Z" fill="#DDDDDD" fill-opacity="0.1"/>
<path d="M221.083 936.378L264.5 864.017H177.667L221.083 936.378Z" fill="#999999" fill-opacity="0.1"/>
<path d="M307.917 936.378L264.5 1008.74H351.333L307.917 936.378Z" fill="black" fill-opacity="0.1"/>
<path d="M307.917 936.378L351.333 864.017H264.5L307.917 936.378Z" fill="#DDDDDD" fill-opacity="0.1"/>
<path d="M394.75 936.378L351.333 1008.74H438.167L394.75 936.378Z" fill="#444444" fill-opacity="0.1"/>
<path d="M394.75 936.378L438.167 864.017H351.333L394.75 936.378Z" fill="white" fill-opacity="0.1"/>
<path d="M481.583 936.378L438.167 1008.74H525L481.583 936.378Z" fill="#DDDDDD" fill-opacity="0.1"/>
<path d="M481.583 936.378L525 864.017H438.167L481.583 936.378Z" fill="#444444" fill-opacity="0.1"/>
<path d="M47.4167 1081.1L90.8333 1008.74H4L47.4167 1081.1Z" fill="black" fill-opacity="0.1"/>
<path d="M134.25 1081.1L177.667 1008.74H90.8334L134.25 1081.1Z" fill="#AAAAAA" fill-opacity="0.1"/>
<path d="M221.083 1081.1L264.5 1008.74H177.667L221.083 1081.1Z" fill="#999999" fill-opacity="0.1"/>
<path d="M307.917 1081.1L351.333 1008.74H264.5L307.917 1081.1Z" fill="white" fill-opacity="0.1"/>
<path d="M394.75 1081.1L438.167 1008.74H351.333L394.75 1081.1Z" fill="#DDDDDD" fill-opacity="0.1"/>
<path d="M481.583 1081.1L525 1008.74H438.167L481.583 1081.1Z" fill="#444444" fill-opacity="0.1"/>
<path d="M90.8334 864.017L47.4167 936.378H134.25L90.8334 864.017Z" fill="#999999" fill-opacity="0.1"/>
<path d="M177.667 864.017L134.25 936.378H221.083L177.667 864.017Z" fill="#444444" fill-opacity="0.1"/>
<path d="M264.5 864.017L221.083 936.378H307.917L264.5 864.017Z" fill="white" fill-opacity="0.1"/>
<path d="M438.167 864.017L394.75 936.378H481.583L438.167 864.017Z" fill="black" fill-opacity="0.1"/>
<path d="M4.00004 1008.74L-39.4166 1081.1H47.4167L4.00004 1008.74Z" fill="#222222" fill-opacity="0.1"/>
<path d="M4.00004 1008.74L47.4167 936.378H-39.4166L4.00004 1008.74Z" fill="white" fill-opacity="0.1"/>
<path d="M90.8334 1008.74L47.4167 1081.1H134.25L90.8334 1008.74Z" fill="white" fill-opacity="0.1"/>
<path d="M90.8334 1008.74L134.25 936.378H47.4167L90.8334 1008.74Z" fill="#666666" fill-opacity="0.1"/>
<path d="M177.667 1008.74L134.25 1081.1H221.083L177.667 1008.74Z" fill="#222222" fill-opacity="0.1"/>
<path d="M177.667 1008.74L221.083 936.378H134.25L177.667 1008.74Z" fill="white" fill-opacity="0.1"/>
<path d="M264.5 1008.74L221.083 1081.1H307.917L264.5 1008.74Z" fill="#444444" fill-opacity="0.1"/>
<path d="M264.5 1008.74L307.917 936.378H221.083L264.5 1008.74Z" fill="#222222" fill-opacity="0.1"/>
<path d="M351.333 1008.74L307.917 1081.1H394.75L351.333 1008.74Z" fill="#AAAAAA" fill-opacity="0.1"/>
<path d="M351.333 1008.74L394.75 936.378H307.917L351.333 1008.74Z" fill="#666666" fill-opacity="0.1"/>
<path d="M438.167 1008.74L394.75 1081.1H481.583L438.167 1008.74Z" fill="white" fill-opacity="0.1"/>
<path d="M438.167 1008.74L481.583 936.378H394.75L438.167 1008.74Z" fill="#999999" fill-opacity="0.1"/>
<path d="M525 1008.74L481.583 1081.1H568.417L525 1008.74Z" fill="#222222" fill-opacity="0.1"/>
<path d="M525 1008.74L568.417 936.378H481.583L525 1008.74Z" fill="white" fill-opacity="0.1"/>
</g>
<g clip-path="url(#clip14)">
<path d="M1567 864.017H1046V1298.18H1567V864.017Z" fill="#033300"/>
<path d="M1089.42 936.378L1046 1008.74H1132.83L1089.42 936.378Z" fill="#444444" fill-opacity="0.1"/>
<path d="M1089.42 936.378L1132.83 864.017H1046L1089.42 936.378Z" fill="black" fill-opacity="0.1"/>
<path d="M1176.25 936.378L1219.67 864.017H1132.83L1176.25 936.378Z" fill="#AAAAAA" fill-opacity="0.1"/>
<path d="M1263.08 936.378L1219.67 1008.74H1306.5L1263.08 936.378Z" fill="#DDDDDD" fill-opacity="0.1"/>
<path d="M1263.08 936.378L1306.5 864.017H1219.67L1263.08 936.378Z" fill="#999999" fill-opacity="0.1"/>
<path d="M1349.92 936.378L1306.5 1008.74H1393.33L1349.92 936.378Z" fill="black" fill-opacity="0.1"/>
<path d="M1349.92 936.378L1393.33 864.017H1306.5L1349.92 936.378Z" fill="#DDDDDD" fill-opacity="0.1"/>
<path d="M1436.75 936.378L1393.33 1008.74H1480.17L1436.75 936.378Z" fill="#444444" fill-opacity="0.1"/>
<path d="M1436.75 936.378L1480.17 864.017H1393.33L1436.75 936.378Z" fill="white" fill-opacity="0.1"/>
<path d="M1523.58 936.378L1480.17 1008.74H1567L1523.58 936.378Z" fill="#DDDDDD" fill-opacity="0.1"/>
<path d="M1523.58 936.378L1567 864.017H1480.17L1523.58 936.378Z" fill="#444444" fill-opacity="0.1"/>
<path d="M1089.42 1081.1L1132.83 1008.74H1046L1089.42 1081.1Z" fill="black" fill-opacity="0.1"/>
<path d="M1176.25 1081.1L1219.67 1008.74H1132.83L1176.25 1081.1Z" fill="#AAAAAA" fill-opacity="0.1"/>
<path d="M1263.08 1081.1L1306.5 1008.74H1219.67L1263.08 1081.1Z" fill="#999999" fill-opacity="0.1"/>
<path d="M1349.92 1081.1L1393.33 1008.74H1306.5L1349.92 1081.1Z" fill="white" fill-opacity="0.1"/>
<path d="M1436.75 1081.1L1480.17 1008.74H1393.33L1436.75 1081.1Z" fill="#DDDDDD" fill-opacity="0.1"/>
<path d="M1523.58 1081.1L1567 1008.74H1480.17L1523.58 1081.1Z" fill="#444444" fill-opacity="0.1"/>
<path d="M1132.83 864.017L1089.42 936.378H1176.25L1132.83 864.017Z" fill="#999999" fill-opacity="0.1"/>
<path d="M1219.67 864.017L1176.25 936.378H1263.08L1219.67 864.017Z" fill="#444444" fill-opacity="0.1"/>
<path d="M1306.5 864.017L1263.08 936.378H1349.92L1306.5 864.017Z" fill="white" fill-opacity="0.1"/>
<path d="M1480.17 864.017L1436.75 936.378H1523.58L1480.17 864.017Z" fill="black" fill-opacity="0.1"/>
<path d="M1046 1008.74L1002.58 1081.1H1089.42L1046 1008.74Z" fill="#222222" fill-opacity="0.1"/>
<path d="M1046 1008.74L1089.42 936.378H1002.58L1046 1008.74Z" fill="white" fill-opacity="0.1"/>
<path d="M1132.83 1008.74L1089.42 1081.1H1176.25L1132.83 1008.74Z" fill="white" fill-opacity="0.1"/>
<path d="M1132.83 1008.74L1176.25 936.378H1089.42L1132.83 1008.74Z" fill="#666666" fill-opacity="0.1"/>
<path d="M1219.67 1008.74L1176.25 1081.1H1263.08L1219.67 1008.74Z" fill="#222222" fill-opacity="0.1"/>
<path d="M1219.67 1008.74L1263.08 936.378H1176.25L1219.67 1008.74Z" fill="white" fill-opacity="0.1"/>
<path d="M1306.5 1008.74L1263.08 1081.1H1349.92L1306.5 1008.74Z" fill="#444444" fill-opacity="0.1"/>
<path d="M1306.5 1008.74L1349.92 936.378H1263.08L1306.5 1008.74Z" fill="#222222" fill-opacity="0.1"/>
<path d="M1393.33 1008.74L1349.92 1081.1H1436.75L1393.33 1008.74Z" fill="#AAAAAA" fill-opacity="0.1"/>
<path d="M1393.33 1008.74L1436.75 936.378H1349.92L1393.33 1008.74Z" fill="#666666" fill-opacity="0.1"/>
<path d="M1480.17 1008.74L1436.75 1081.1H1523.58L1480.17 1008.74Z" fill="white" fill-opacity="0.1"/>
<path d="M1480.17 1008.74L1523.58 936.378H1436.75L1480.17 1008.74Z" fill="#999999" fill-opacity="0.1"/>
<path d="M1567 1008.74L1523.58 1081.1H1610.42L1567 1008.74Z" fill="#222222" fill-opacity="0.1"/>
<path d="M1567 1008.74L1610.42 936.378H1523.58L1567 1008.74Z" fill="white" fill-opacity="0.1"/>
</g>
<g clip-path="url(#clip15)">
<path d="M1567 864.017H1046V1298.18H1567V864.017Z" fill="#033300"/>
<path d="M1089.42 936.378L1046 1008.74H1132.83L1089.42 936.378Z" fill="#444444" fill-opacity="0.1"/>
<path d="M1089.42 936.378L1132.83 864.017H1046L1089.42 936.378Z" fill="black" fill-opacity="0.1"/>
<path d="M1176.25 936.378L1219.67 864.017H1132.83L1176.25 936.378Z" fill="#AAAAAA" fill-opacity="0.1"/>
<path d="M1263.08 936.378L1219.67 1008.74H1306.5L1263.08 936.378Z" fill="#DDDDDD" fill-opacity="0.1"/>
<path d="M1263.08 936.378L1306.5 864.017H1219.67L1263.08 936.378Z" fill="#999999" fill-opacity="0.1"/>
<path d="M1349.92 936.378L1306.5 1008.74H1393.33L1349.92 936.378Z" fill="black" fill-opacity="0.1"/>
<path d="M1349.92 936.378L1393.33 864.017H1306.5L1349.92 936.378Z" fill="#DDDDDD" fill-opacity="0.1"/>
<path d="M1436.75 936.378L1393.33 1008.74H1480.17L1436.75 936.378Z" fill="#444444" fill-opacity="0.1"/>
<path d="M1436.75 936.378L1480.17 864.017H1393.33L1436.75 936.378Z" fill="white" fill-opacity="0.1"/>
<path d="M1523.58 936.378L1480.17 1008.74H1567L1523.58 936.378Z" fill="#DDDDDD" fill-opacity="0.1"/>
<path d="M1523.58 936.378L1567 864.017H1480.17L1523.58 936.378Z" fill="#444444" fill-opacity="0.1"/>
<path d="M1089.42 1081.1L1132.83 1008.74H1046L1089.42 1081.1Z" fill="black" fill-opacity="0.1"/>
<path d="M1176.25 1081.1L1219.67 1008.74H1132.83L1176.25 1081.1Z" fill="#AAAAAA" fill-opacity="0.1"/>
<path d="M1263.08 1081.1L1306.5 1008.74H1219.67L1263.08 1081.1Z" fill="#999999" fill-opacity="0.1"/>
<path d="M1349.92 1081.1L1393.33 1008.74H1306.5L1349.92 1081.1Z" fill="white" fill-opacity="0.1"/>
<path d="M1436.75 1081.1L1480.17 1008.74H1393.33L1436.75 1081.1Z" fill="#DDDDDD" fill-opacity="0.1"/>
<path d="M1523.58 1081.1L1567 1008.74H1480.17L1523.58 1081.1Z" fill="#444444" fill-opacity="0.1"/>
<path d="M1132.83 864.017L1089.42 936.378H1176.25L1132.83 864.017Z" fill="#999999" fill-opacity="0.1"/>
<path d="M1219.67 864.017L1176.25 936.378H1263.08L1219.67 864.017Z" fill="#444444" fill-opacity="0.1"/>
<path d="M1306.5 864.017L1263.08 936.378H1349.92L1306.5 864.017Z" fill="white" fill-opacity="0.1"/>
<path d="M1480.17 864.017L1436.75 936.378H1523.58L1480.17 864.017Z" fill="black" fill-opacity="0.1"/>
<path d="M1046 1008.74L1002.58 1081.1H1089.42L1046 1008.74Z" fill="#222222" fill-opacity="0.1"/>
<path d="M1046 1008.74L1089.42 936.378H1002.58L1046 1008.74Z" fill="white" fill-opacity="0.1"/>
<path d="M1132.83 1008.74L1089.42 1081.1H1176.25L1132.83 1008.74Z" fill="white" fill-opacity="0.1"/>
<path d="M1132.83 1008.74L1176.25 936.378H1089.42L1132.83 1008.74Z" fill="#666666" fill-opacity="0.1"/>
<path d="M1219.67 1008.74L1176.25 1081.1H1263.08L1219.67 1008.74Z" fill="#222222" fill-opacity="0.1"/>
<path d="M1219.67 1008.74L1263.08 936.378H1176.25L1219.67 1008.74Z" fill="white" fill-opacity="0.1"/>
<path d="M1306.5 1008.74L1263.08 1081.1H1349.92L1306.5 1008.74Z" fill="#444444" fill-opacity="0.1"/>
<path d="M1306.5 1008.74L1349.92 936.378H1263.08L1306.5 1008.74Z" fill="#222222" fill-opacity="0.1"/>
<path d="M1393.33 1008.74L1349.92 1081.1H1436.75L1393.33 1008.74Z" fill="#AAAAAA" fill-opacity="0.1"/>
<path d="M1393.33 1008.74L1436.75 936.378H1349.92L1393.33 1008.74Z" fill="#666666" fill-opacity="0.1"/>
<path d="M1480.17 1008.74L1436.75 1081.1H1523.58L1480.17 1008.74Z" fill="white" fill-opacity="0.1"/>
<path d="M1480.17 1008.74L1523.58 936.378H1436.75L1480.17 1008.74Z" fill="#999999" fill-opacity="0.1"/>
<path d="M1567 1008.74L1523.58 1081.1H1610.42L1567 1008.74Z" fill="#222222" fill-opacity="0.1"/>
<path d="M1567 1008.74L1610.42 936.378H1523.58L1567 1008.74Z" fill="white" fill-opacity="0.1"/>
</g>
<g clip-path="url(#clip16)">
<path d="M1046 864.017H525V1298.18H1046V864.017Z" fill="#033300"/>
<path d="M568.417 936.378L525 1008.74H611.833L568.417 936.378Z" fill="#444444" fill-opacity="0.1"/>
<path d="M568.417 936.378L611.833 864.017H525L568.417 936.378Z" fill="black" fill-opacity="0.1"/>
<path d="M655.25 936.378L698.667 864.017H611.833L655.25 936.378Z" fill="#AAAAAA" fill-opacity="0.1"/>
<path d="M742.083 936.378L698.667 1008.74H785.5L742.083 936.378Z" fill="#DDDDDD" fill-opacity="0.1"/>
<path d="M742.083 936.378L785.5 864.017H698.667L742.083 936.378Z" fill="#999999" fill-opacity="0.1"/>
<path d="M828.917 936.378L785.5 1008.74H872.333L828.917 936.378Z" fill="black" fill-opacity="0.1"/>
<path d="M828.917 936.378L872.333 864.017H785.5L828.917 936.378Z" fill="#DDDDDD" fill-opacity="0.1"/>
<path d="M915.75 936.378L872.333 1008.74H959.167L915.75 936.378Z" fill="#444444" fill-opacity="0.1"/>
<path d="M915.75 936.378L959.167 864.017H872.333L915.75 936.378Z" fill="white" fill-opacity="0.1"/>
<path d="M1002.58 936.378L959.167 1008.74H1046L1002.58 936.378Z" fill="#DDDDDD" fill-opacity="0.1"/>
<path d="M1002.58 936.378L1046 864.017H959.167L1002.58 936.378Z" fill="#444444" fill-opacity="0.1"/>
<path d="M568.417 1081.1L611.833 1008.74H525L568.417 1081.1Z" fill="black" fill-opacity="0.1"/>
<path d="M655.25 1081.1L698.667 1008.74H611.833L655.25 1081.1Z" fill="#AAAAAA" fill-opacity="0.1"/>
<path d="M742.083 1081.1L785.5 1008.74H698.667L742.083 1081.1Z" fill="#999999" fill-opacity="0.1"/>
<path d="M828.917 1081.1L872.333 1008.74H785.5L828.917 1081.1Z" fill="white" fill-opacity="0.1"/>
<path d="M915.75 1081.1L959.167 1008.74H872.333L915.75 1081.1Z" fill="#DDDDDD" fill-opacity="0.1"/>
<path d="M1002.58 1081.1L1046 1008.74H959.167L1002.58 1081.1Z" fill="#444444" fill-opacity="0.1"/>
<path d="M611.833 864.017L568.417 936.378H655.25L611.833 864.017Z" fill="#999999" fill-opacity="0.1"/>
<path d="M698.667 864.017L655.25 936.378H742.083L698.667 864.017Z" fill="#444444" fill-opacity="0.1"/>
<path d="M785.5 864.017L742.083 936.378H828.917L785.5 864.017Z" fill="white" fill-opacity="0.1"/>
<path d="M959.167 864.017L915.75 936.378H1002.58L959.167 864.017Z" fill="black" fill-opacity="0.1"/>
<path d="M525 1008.74L481.583 1081.1H568.417L525 1008.74Z" fill="#222222" fill-opacity="0.1"/>
<path d="M525 1008.74L568.417 936.378H481.583L525 1008.74Z" fill="white" fill-opacity="0.1"/>
<path d="M611.833 1008.74L568.417 1081.1H655.25L611.833 1008.74Z" fill="white" fill-opacity="0.1"/>
<path d="M611.833 1008.74L655.25 936.378H568.417L611.833 1008.74Z" fill="#666666" fill-opacity="0.1"/>
<path d="M698.667 1008.74L655.25 1081.1H742.083L698.667 1008.74Z" fill="#222222" fill-opacity="0.1"/>
<path d="M698.667 1008.74L742.083 936.378H655.25L698.667 1008.74Z" fill="white" fill-opacity="0.1"/>
<path d="M785.5 1008.74L742.083 1081.1H828.917L785.5 1008.74Z" fill="#444444" fill-opacity="0.1"/>
<path d="M785.5 1008.74L828.917 936.378H742.083L785.5 1008.74Z" fill="#222222" fill-opacity="0.1"/>
<path d="M872.333 1008.74L828.917 1081.1H915.75L872.333 1008.74Z" fill="#AAAAAA" fill-opacity="0.1"/>
<path d="M872.333 1008.74L915.75 936.378H828.917L872.333 1008.74Z" fill="#666666" fill-opacity="0.1"/>
<path d="M959.167 1008.74L915.75 1081.1H1002.58L959.167 1008.74Z" fill="white" fill-opacity="0.1"/>
<path d="M959.167 1008.74L1002.58 936.378H915.75L959.167 1008.74Z" fill="#999999" fill-opacity="0.1"/>
<path d="M1046 1008.74L1002.58 1081.1H1089.42L1046 1008.74Z" fill="#222222" fill-opacity="0.1"/>
<path d="M1046 1008.74L1089.42 936.378H1002.58L1046 1008.74Z" fill="white" fill-opacity="0.1"/>
</g>
<g clip-path="url(#clip17)">
<path d="M1046 864.017H525V1298.18H1046V864.017Z" fill="#033300"/>
<path d="M568.417 936.378L525 1008.74H611.833L568.417 936.378Z" fill="#444444" fill-opacity="0.1"/>
<path d="M568.417 936.378L611.833 864.017H525L568.417 936.378Z" fill="black" fill-opacity="0.1"/>
<path d="M655.25 936.378L698.667 864.017H611.833L655.25 936.378Z" fill="#AAAAAA" fill-opacity="0.1"/>
<path d="M742.083 936.378L698.667 1008.74H785.5L742.083 936.378Z" fill="#DDDDDD" fill-opacity="0.1"/>
<path d="M742.083 936.378L785.5 864.017H698.667L742.083 936.378Z" fill="#999999" fill-opacity="0.1"/>
<path d="M828.917 936.378L785.5 1008.74H872.333L828.917 936.378Z" fill="black" fill-opacity="0.1"/>
<path d="M828.917 936.378L872.333 864.017H785.5L828.917 936.378Z" fill="#DDDDDD" fill-opacity="0.1"/>
<path d="M915.75 936.378L872.333 1008.74H959.167L915.75 936.378Z" fill="#444444" fill-opacity="0.1"/>
<path d="M915.75 936.378L959.167 864.017H872.333L915.75 936.378Z" fill="white" fill-opacity="0.1"/>
<path d="M1002.58 936.378L959.167 1008.74H1046L1002.58 936.378Z" fill="#DDDDDD" fill-opacity="0.1"/>
<path d="M1002.58 936.378L1046 864.017H959.167L1002.58 936.378Z" fill="#444444" fill-opacity="0.1"/>
<path d="M568.417 1081.1L611.833 1008.74H525L568.417 1081.1Z" fill="black" fill-opacity="0.1"/>
<path d="M655.25 1081.1L698.667 1008.74H611.833L655.25 1081.1Z" fill="#AAAAAA" fill-opacity="0.1"/>
<path d="M742.083 1081.1L785.5 1008.74H698.667L742.083 1081.1Z" fill="#999999" fill-opacity="0.1"/>
<path d="M828.917 1081.1L872.333 1008.74H785.5L828.917 1081.1Z" fill="white" fill-opacity="0.1"/>
<path d="M915.75 1081.1L959.167 1008.74H872.333L915.75 1081.1Z" fill="#DDDDDD" fill-opacity="0.1"/>
<path d="M1002.58 1081.1L1046 1008.74H959.167L1002.58 1081.1Z" fill="#444444" fill-opacity="0.1"/>
<path d="M611.833 864.017L568.417 936.378H655.25L611.833 864.017Z" fill="#999999" fill-opacity="0.1"/>
<path d="M698.667 864.017L655.25 936.378H742.083L698.667 864.017Z" fill="#444444" fill-opacity="0.1"/>
<path d="M785.5 864.017L742.083 936.378H828.917L785.5 864.017Z" fill="white" fill-opacity="0.1"/>
<path d="M959.167 864.017L915.75 936.378H1002.58L959.167 864.017Z" fill="black" fill-opacity="0.1"/>
<path d="M525 1008.74L481.583 1081.1H568.417L525 1008.74Z" fill="#222222" fill-opacity="0.1"/>
<path d="M525 1008.74L568.417 936.378H481.583L525 1008.74Z" fill="white" fill-opacity="0.1"/>
<path d="M611.833 1008.74L568.417 1081.1H655.25L611.833 1008.74Z" fill="white" fill-opacity="0.1"/>
<path d="M611.833 1008.74L655.25 936.378H568.417L611.833 1008.74Z" fill="#666666" fill-opacity="0.1"/>
<path d="M698.667 1008.74L655.25 1081.1H742.083L698.667 1008.74Z" fill="#222222" fill-opacity="0.1"/>
<path d="M698.667 1008.74L742.083 936.378H655.25L698.667 1008.74Z" fill="white" fill-opacity="0.1"/>
<path d="M785.5 1008.74L742.083 1081.1H828.917L785.5 1008.74Z" fill="#444444" fill-opacity="0.1"/>
<path d="M785.5 1008.74L828.917 936.378H742.083L785.5 1008.74Z" fill="#222222" fill-opacity="0.1"/>
<path d="M872.333 1008.74L828.917 1081.1H915.75L872.333 1008.74Z" fill="#AAAAAA" fill-opacity="0.1"/>
<path d="M872.333 1008.74L915.75 936.378H828.917L872.333 1008.74Z" fill="#666666" fill-opacity="0.1"/>
<path d="M959.167 1008.74L915.75 1081.1H1002.58L959.167 1008.74Z" fill="white" fill-opacity="0.1"/>
<path d="M959.167 1008.74L1002.58 936.378H915.75L959.167 1008.74Z" fill="#999999" fill-opacity="0.1"/>
<path d="M1046 1008.74L1002.58 1081.1H1089.42L1046 1008.74Z" fill="#222222" fill-opacity="0.1"/>
<path d="M1046 1008.74L1089.42 936.378H1002.58L1046 1008.74Z" fill="white" fill-opacity="0.1"/>
</g>
<g clip-path="url(#clip18)">
<path d="M2088 864.017H1567V1298.18H2088V864.017Z" fill="#033300"/>
<path d="M1610.42 936.378L1567 1008.74H1653.83L1610.42 936.378Z" fill="#444444" fill-opacity="0.1"/>
<path d="M1610.42 936.378L1653.83 864.017H1567L1610.42 936.378Z" fill="black" fill-opacity="0.1"/>
<path d="M1697.25 936.378L1740.67 864.017H1653.83L1697.25 936.378Z" fill="#AAAAAA" fill-opacity="0.1"/>
<path d="M1784.08 936.378L1740.67 1008.74H1827.5L1784.08 936.378Z" fill="#DDDDDD" fill-opacity="0.1"/>
<path d="M1784.08 936.378L1827.5 864.017H1740.67L1784.08 936.378Z" fill="#999999" fill-opacity="0.1"/>
<path d="M1610.42 1081.1L1653.83 1008.74H1567L1610.42 1081.1Z" fill="black" fill-opacity="0.1"/>
<path d="M1697.25 1081.1L1740.67 1008.74H1653.83L1697.25 1081.1Z" fill="#AAAAAA" fill-opacity="0.1"/>
<path d="M1784.08 1081.1L1827.5 1008.74H1740.67L1784.08 1081.1Z" fill="#999999" fill-opacity="0.1"/>
<path d="M1653.83 864.017L1610.42 936.378H1697.25L1653.83 864.017Z" fill="#999999" fill-opacity="0.1"/>
<path d="M1740.67 864.017L1697.25 936.378H1784.08L1740.67 864.017Z" fill="#444444" fill-opacity="0.1"/>
<path d="M1567 1008.74L1523.58 1081.1H1610.42L1567 1008.74Z" fill="#222222" fill-opacity="0.1"/>
<path d="M1567 1008.74L1610.42 936.378H1523.58L1567 1008.74Z" fill="white" fill-opacity="0.1"/>
<path d="M1653.83 1008.74L1610.42 1081.1H1697.25L1653.83 1008.74Z" fill="white" fill-opacity="0.1"/>
<path d="M1653.83 1008.74L1697.25 936.378H1610.42L1653.83 1008.74Z" fill="#666666" fill-opacity="0.1"/>
<path d="M1740.67 1008.74L1697.25 1081.1H1784.08L1740.67 1008.74Z" fill="#222222" fill-opacity="0.1"/>
<path d="M1740.67 1008.74L1784.08 936.378H1697.25L1740.67 1008.74Z" fill="white" fill-opacity="0.1"/>
</g>
<rect x="4" width="1762" height="1022" fill="black" fill-opacity="0.39"/>
</g>
<defs>
<filter id="filter0_d" x="0" y="0" width="1772" height="1032" filterUnits="userSpaceOnUse" color-interpolation-filters="sRGB">
<feFlood flood-opacity="0" result="BackgroundImageFix"/>
<feColorMatrix in="SourceAlpha" type="matrix" values="0 0 0 0 0 0 0 0 0 0 0 0 0 0 0 0 0 0 127 0"/>
<feOffset dy="4"/>
<feGaussianBlur stdDeviation="2"/>
<feColorMatrix type="matrix" values="0 0 0 0 0 0 0 0 0 0 0 0 0 0 0 0 0 0 0.25 0"/>
<feBlend mode="normal" in2="BackgroundImageFix" result="effect1_dropShadow"/>
<feBlend mode="normal" in="SourceGraphic" in2="effect1_dropShadow" result="shape"/>
</filter>
<clipPath id="clip0">
<rect width="1764" height="1024" fill="white" transform="translate(4)"/>
</clipPath>
<clipPath id="clip1">
<rect width="521" height="434.2" fill="white" transform="translate(4 434)"/>
</clipPath>
<clipPath id="clip2">
<rect width="521" height="434.2" fill="white" transform="translate(4 434)"/>
</clipPath>
<clipPath id="clip3">
<rect width="521" height="434.2" fill="white" transform="translate(1046)"/>
</clipPath>
<clipPath id="clip4">
<rect width="521" height="434.2" fill="white" transform="translate(1046 434)"/>
</clipPath>
<clipPath id="clip5">
<rect width="521" height="434.2" fill="white" transform="translate(1046 434)"/>
</clipPath>
<clipPath id="clip6">
<rect width="521" height="434.2" fill="white" transform="translate(525)"/>
</clipPath>
<clipPath id="clip7">
<rect width="521" height="434.2" fill="white" transform="translate(4)"/>
</clipPath>
<clipPath id="clip8">
<rect width="521" height="434.2" fill="white" transform="translate(525 434)"/>
</clipPath>
<clipPath id="clip9">
<rect width="521" height="434.2" fill="white" transform="translate(525 434)"/>
</clipPath>
<clipPath id="clip10">
<rect width="521" height="434.2" fill="white" transform="translate(1567)"/>
</clipPath>
<clipPath id="clip11">
<rect width="521" height="434.2" fill="white" transform="translate(1567 434)"/>
</clipPath>
<clipPath id="clip12">
<rect width="521" height="434.2" fill="white" transform="translate(4 864)"/>
</clipPath>
<clipPath id="clip13">
<rect width="521" height="434.2" fill="white" transform="translate(4 864)"/>
</clipPath>
<clipPath id="clip14">
<rect width="521" height="434.2" fill="white" transform="translate(1046 864)"/>
</clipPath>
<clipPath id="clip15">
<rect width="521" height="434.2" fill="white" transform="translate(1046 864)"/>
</clipPath>
<clipPath id="clip16">
<rect width="521" height="434.2" fill="white" transform="translate(525 864)"/>
</clipPath>
<clipPath id="clip17">
<rect width="521" height="434.2" fill="white" transform="translate(525 864)"/>
</clipPath>
<clipPath id="clip18">
<rect width="521" height="434.2" fill="white" transform="translate(1567 864)"/>
</clipPath>
</defs>
</svg>
